<svg width="100%" height="100%" viewBox="0 0 2515 388" class="h-full" fill="currentColor">
	<g id="Artboard1" transform="matrix(1,0,0,1,-156.490946,-622.643165)">
		<g transform="matrix(1,0,0,1,-306.783515,27.030329)">
			<g>
				<path
					d="M789.028,721.311L784.982,726.506C780.897,731.83 781.063,731.808 776.986,737.094C774.858,739.853 772.643,742.544 770.485,745.28C769.786,746.168 769.094,747.062 768.415,747.964C767.767,748.827 762.435,755.913 760.677,758.761C760.528,759.189 759.392,762.273 754.81,770.612C752.781,774.303 747.904,782.071 747.284,783.057C743.178,789.592 743.05,789.298 739.032,795.717C738.386,796.75 732.936,805.468 731.33,808.58C729.257,812.6 729.978,812.691 729.669,817.281L729.669,817.287C729.525,819.344 729.117,821.377 728.973,823.434C728.93,824.046 728.933,824.667 729.016,825.281L729.017,825.287C729.362,827.91 729.737,827.753 731.72,832.917C731.97,833.563 733.724,838.117 735.079,840.815L739.904,849.022L739.967,849.147C741.225,851.626 743.256,856.893 743.547,857.648L746.233,865.439L749.37,873.228L751.508,880.937L753.767,888.173C754.078,889.007 755.34,892.42 756.237,894.005C757.043,894.674 759.099,896.588 762.791,901.267C763.198,901.783 763.173,901.759 767.71,908.693L767.714,908.698C768.657,910.148 769.467,911.682 770.403,913.136C770.848,913.828 771.304,914.515 771.812,915.166C772.326,915.591 774.243,917.278 778.59,922.098C782.587,926.531 784.183,928.853 784.617,929.479C784.913,929.906 784.826,929.972 786.628,933.121C784.363,935.166 782.05,937.159 779.69,939.097C777.904,936.014 777.279,934.775 777.14,934.49C776.663,933.807 775.214,931.794 771.906,928.125C765.67,921.21 765.475,921.647 764.977,921.03C764.2,920.07 763.503,919.045 762.835,918.007C761.908,916.565 761.106,915.046 760.172,913.609C756.047,907.306 756.095,907.311 755.725,906.841C751.047,900.912 750.17,900.726 749.746,900.31L749.033,899.455C747.779,897.602 745.555,891.897 745.299,891.221L745.251,891.096L742.874,883.481L740.833,876.121L737.799,868.59L735.088,860.727C734.767,859.89 733.097,855.537 732,853.336L727.178,845.134L727.116,845.012C725.611,842.051 723.603,836.882 723.323,836.158L723.321,836.152C720.821,829.639 720.53,829.77 720.095,826.473C719.932,825.261 719.909,824.025 719.995,822.805C720.139,820.749 720.546,818.718 720.69,816.662C721.125,810.198 720.405,810.127 723.332,804.454C725.018,801.185 730.732,792.016 731.4,790.945L731.402,790.943C735.425,784.516 735.553,784.81 739.664,778.268C740.261,777.319 744.967,769.835 746.922,766.278C752.904,755.392 752.323,755.185 752.877,754.267C754.65,751.33 760.529,743.478 761.222,742.556L761.223,742.553C761.943,741.596 762.676,740.649 763.418,739.708C765.555,736.997 767.751,734.332 769.859,731.598C773.933,726.316 773.764,726.343 777.861,721.002L785.906,710.673L785.941,710.63C786.31,710.179 786.679,709.728 787.058,709.286C789.545,706.394 792.091,703.552 794.539,700.626C802.025,691.683 801.868,691.591 802.529,690.822L802.531,690.82C807.015,685.621 806.553,685.452 811.534,680.906C812.817,679.733 814.271,678.58 814.983,678.027C816.089,679.588 817.173,681.167 818.233,682.761C809.508,692.717 801.493,702.96 794.61,712.921C793.497,714.531 791.507,717.409 789.028,721.311ZM818.233,682.761C828.318,671.254 839.354,660.13 850.691,650.266C857.832,644.053 882.561,622.815 914.216,610.105C932.929,602.591 958.764,596.256 989.991,596.256C998.663,596.256 1036.637,596.281 1073.874,614.289C1101.961,627.872 1118.691,646.172 1127.442,665.675C1139.993,693.647 1134.792,725.693 1131.285,744.203L1053.622,744.352C1055.795,728.201 1058.262,700.455 1040.857,681.789C1021.676,661.217 993.23,660.654 984.491,660.656C965.821,660.662 944.946,665.012 924.422,676.216C905.963,686.293 887.707,702.111 872.943,721.218C855.976,743.178 845.122,768.517 842.458,791.686C838.389,827.08 854.211,852.156 860.691,861.473C872.392,878.3 890.063,894.63 910.987,905.693C930.593,916.06 951.844,921.136 972,921.116C983.164,921.105 1007.259,919.576 1025.454,901.227C1042.094,884.446 1043.51,857.698 1044.21,841.862L1122.69,841.667C1122.688,860.717 1123.026,891.639 1112.473,916.63C1106.139,931.63 1093.569,951.375 1066.223,965.881C1032.534,983.751 992.879,983.33 986.881,983.331C961.162,983.335 934.366,978.776 908.896,969.255C884.487,960.13 859.986,946.365 838.529,929.849C813.469,910.561 793.995,888.66 781.84,869.749C781.037,868.5 780.22,867.194 779.397,865.832L779.126,865.098L779.071,864.973C778.78,864.31 777.723,861.894 774.991,856.903L774.96,856.846L771.454,850.856C766.391,839.748 762.186,826.493 761.091,811.508C761.366,810.773 761.773,809.901 762.39,808.633L762.391,808.63C763.532,806.274 768.658,797.1 769.214,796.104C775.644,784.586 775.779,784.684 776.312,783.673C778.124,780.242 781.76,772.464 782.218,771.482C787.254,760.704 786.978,760.799 787.428,759.887C790.128,754.427 789.569,754.221 793.136,749.188C793.767,748.3 796.866,743.951 802.087,739.061L802.089,739.059C803.64,737.603 813.38,730.436 815.172,728.557C815.245,728.481 815.237,728.598 822.658,717.539L822.661,717.534L829.469,707.331L831.009,705.063C829.515,701.999 827.943,698.981 826.295,696.01C825.346,697.389 823.989,699.377 822.011,702.294L822.002,702.308L815.181,712.529C810.63,719.312 808.923,721.853 808.454,722.55C806.274,724.64 797.384,731.132 795.931,732.495C790.012,738.041 786.509,742.978 785.799,743.976L785.797,743.979C781.81,749.605 782.376,749.8 779.358,755.903L779.356,755.906C778.898,756.835 779.174,756.736 774.064,767.673C773.621,768.623 770.105,776.155 768.352,779.473L768.35,779.476C767.83,780.465 767.693,780.371 761.574,791.327C765.082,762.29 780.171,735.257 789.028,721.311L792.939,716.289C793.251,715.908 793.562,715.527 793.883,715.153C796.396,712.231 798.967,709.359 801.441,706.403C808.855,697.545 808.697,697.453 809.35,696.694C813.472,691.914 813.021,691.734 817.605,687.55L817.606,687.549C818.446,686.781 819.374,686.025 820.026,685.509C819.436,684.588 818.838,683.672 818.233,682.761ZM779.397,865.832L781.904,872.635L785.156,880.002L785.202,880.125C785.897,881.985 786.249,883.956 786.821,885.858C786.953,886.294 787.105,886.725 787.288,887.141C787.772,888.24 790.996,893.171 791.485,894.397C792.289,896.411 792.449,897.677 792.513,898.788C792.555,899.524 792.428,900.122 792.97,901.465C793.833,903.604 796.311,907.033 796.637,907.494C797.016,908.029 798.768,910.499 801.786,913.811L803.667,915.672C801.707,917.948 799.694,920.179 797.632,922.361L795.293,920.047L795.217,919.964C791.737,916.156 789.724,913.305 789.29,912.693C788.868,912.095 785.741,907.602 784.623,904.831C783.806,902.805 783.639,901.532 783.573,900.419C783.529,899.676 783.662,899.077 783.126,897.732C782.655,896.552 779.519,891.828 779.053,890.771C778.721,890.018 778.441,889.24 778.203,888.451C777.699,886.777 777.411,885.034 776.813,883.388L773.557,876.012L770.773,868.46C770.439,867.705 769.444,865.517 767.126,861.28L762.379,853.167L758.821,844.886C755.873,839.097 755.02,838.132 754.658,837.647L753.846,836.197C752.687,833.197 751.91,827.258 751.814,826.469C751.207,821.511 751.372,817.586 751.404,816.814C751.67,810.436 751.49,810.469 754.293,804.704C755.474,802.265 760.779,792.75 761.356,791.717C761.429,791.586 761.502,791.456 761.574,791.327C761.533,791.663 761.494,791.999 761.457,792.335C760.715,798.995 760.644,805.395 761.091,811.508C760.484,813.133 760.525,814.092 760.396,817.188C760.369,817.843 760.232,821.171 760.747,825.375C760.818,825.955 761.286,830.133 762.097,832.554C762.635,833.279 764.154,835.514 766.911,840.939L766.976,841.068L770.428,849.103L771.454,850.856C773.981,856.4 776.722,861.41 779.397,865.832ZM815.813,900.018C817.637,897.402 819.399,894.738 821.095,892.029C820.278,890.321 819.193,887.558 818.936,886.906L816.451,879.902L813.973,872.495L810.637,864.799C810.278,864.054 807.69,858.722 806.297,856.58C805.555,855.437 801.156,850.139 800.31,848.78C798.105,845.237 797.04,842.171 796.831,841.565L796.829,841.56C796.624,840.974 795.87,838.751 795.217,834.041C795.134,833.441 794.437,828.793 794.685,826.481C794.847,824.964 796.879,819.074 797.092,817.784L797.093,817.778C798.189,811.035 798.475,808.599 798.523,808.166C798.995,806.785 801.441,799.658 802.851,796.316C803.039,795.872 803.222,795.425 803.429,794.99C805.102,791.476 806.886,788.015 808.496,784.472C808.731,783.957 808.967,783.442 809.192,782.922C810.664,779.522 812.105,776.108 813.588,772.713L818.584,761.296C819.043,760.287 822.347,753.03 823.753,750.365C823.968,749.959 824.176,749.549 824.408,749.151C826.266,745.962 828.179,742.804 830.025,739.607L830.03,739.598L836.188,728.821C837.309,726.717 838.192,725.015 838.888,723.641C837.509,719.845 836.013,716.104 834.407,712.422C834.069,712.97 833.777,713.457 833.553,713.85C833.083,714.677 833.468,714.78 828.307,724.473L822.227,735.114C820.388,738.299 818.482,741.444 816.631,744.621C816.337,745.127 816.067,745.647 815.794,746.164C814.311,748.974 810.799,756.675 810.38,757.596L810.366,757.627L805.341,769.108C803.853,772.514 802.409,775.937 800.933,779.347C800.729,779.816 800.515,780.281 800.303,780.748C798.715,784.242 796.954,787.655 795.303,791.12C795.038,791.678 794.8,792.248 794.559,792.818C793.024,796.456 790.309,804.37 789.963,805.383C789.675,806.221 789.863,806.16 788.212,816.318C787.985,817.686 785.907,823.922 785.736,825.524C785.417,828.504 786.195,834.502 786.302,835.276C787.105,841.066 788.076,843.794 788.328,844.516C788.596,845.289 789.92,849.117 792.669,853.535C793.53,854.918 797.995,860.321 798.751,861.483C799.924,863.289 802.042,867.692 802.45,868.542L805.562,875.719L807.942,882.834L810.507,890.066C810.79,890.776 813.028,896.271 814.023,897.854C814.273,898.252 814.394,898.304 815.813,900.018ZM833.333,869.219C834.903,865.751 836.374,862.23 837.742,858.657C837.333,857.976 837.07,857.567 836.925,857.348C836.86,857.111 836.81,856.867 836.78,856.622C836.522,854.554 836.613,852.44 836.198,850.398C835.622,847.561 834.053,842.533 833.841,841.857L833.839,841.851C832.052,836.209 831.164,834.077 830.954,833.597C830.488,831.427 830.072,826.368 830.018,825.742L830.018,825.736C829.957,825.054 829.482,819.879 829.573,817.265C829.734,812.607 829.956,812.741 831.218,808.223C831.493,807.247 833.731,799.261 834.356,796.078L834.357,796.074C835.493,790.221 834.928,790.208 835.941,784.391L838.352,772.913C840.364,762.798 840.062,762.868 840.34,762.029C841.264,759.241 844.861,752.449 845.289,751.633C845.654,750.938 845.997,750.29 846.319,749.686C845.423,745.426 844.387,741.218 843.215,737.066C842.585,737.97 840.925,740.58 837.32,747.452C836.837,748.371 832.84,756.053 831.797,759.196C831.491,760.118 831.738,760.027 829.534,771.11L827.104,782.681C826.072,788.572 826.647,788.56 825.524,794.349C824.934,797.353 822.81,804.878 822.554,805.788L822.553,805.793C820.995,811.371 820.777,811.212 820.578,816.954C820.476,819.9 820.981,825.722 821.052,826.52C821.118,827.286 821.676,833.47 822.235,835.843C822.402,836.559 822.687,836.45 825.256,844.558C825.455,845.191 826.865,849.661 827.378,852.19C827.748,854.008 827.619,855.894 827.849,857.734C827.969,858.698 828.191,859.653 828.506,860.571C828.752,861.286 828.937,861.034 833.11,868.777L833.333,869.219ZM1363.201,930.062C1360.754,940.138 1355.118,954.045 1341.448,965.737C1320.586,983.579 1290.031,983.257 1284.925,983.259C1264.632,983.265 1247.491,978.233 1234.109,971.188C1219.373,963.43 1205.661,952.27 1194.587,938.968C1182.269,924.171 1173.913,908.084 1169.384,893.853C1144.571,815.895 1151.454,785.414 1176.234,713.041L1254.051,712.924C1231.464,777.318 1222.04,810.129 1242.417,878.873C1246.791,893.631 1254.908,904.552 1263.736,911.05C1271.77,916.962 1283.271,921.75 1298.016,921.729C1301.072,921.724 1315.594,921.766 1326.309,913.503C1336.381,905.736 1339.163,894.627 1340.026,890.696C1343.261,875.968 1338.529,858.007 1338.304,857.055L1338.538,857.734C1326.319,808.213 1332.215,778.959 1356.201,712.76L1433.953,712.629C1416.892,758.557 1405.702,790.829 1411.074,832.763C1417.095,879.758 1443.578,931.606 1453.915,978.038L1377.255,978.07C1373.883,962.545 1367.615,943.058 1363.201,930.062ZM1551.311,840.789C1559.287,887.003 1583.298,928.99 1594.706,977.975L1516.49,978.01C1505.13,928.003 1475.22,872.907 1471.715,821.818C1469.181,784.882 1481.037,752.389 1496.143,712.522L1572.32,712.39C1568.884,721.241 1560.611,742.068 1554.781,761.92C1562.219,751.129 1574.388,736.912 1592.752,725.101C1611.52,713.031 1632.451,706.978 1652.679,706.946C1653.785,706.944 1662.532,706.93 1666.351,709.045C1659.053,727.325 1646.624,757.372 1641.653,783.145C1641.135,782.918 1639.282,782.101 1634.706,781.852L1623.436,781.625C1621.884,781.63 1587.068,780.859 1566.784,795.213C1555.767,803.01 1547.057,817.447 1551.345,840.907L1551.311,840.789ZM1756.056,839.755C1764.418,885.857 1789.881,927.989 1802.247,977.883L1724.025,977.917C1712.624,930.863 1684.314,879.392 1677.538,831.894C1671.765,791.429 1682.725,760.85 1702.393,712.165L1778.585,712.036C1774.957,720.817 1766.204,741.525 1759.999,761.293C1775.676,739.234 1794.776,727.187 1798.736,724.69C1817.923,712.588 1839.026,706.654 1859.101,706.624C1860.205,706.623 1868.961,706.61 1872.734,708.716C1864.767,727.517 1851.886,756.873 1846.577,782.517C1846.061,782.288 1844.217,781.474 1839.64,781.225L1828.362,780.996C1826.895,781 1791.953,780.214 1771.495,794.541C1759.255,803.112 1751.84,817.944 1756.209,840.265L1756.056,839.755ZM1945.453,868.868C1951.076,880.765 1960.378,895.304 1975.459,907.219C1989.402,918.234 2009.166,926.89 2034.178,926.862C2036.79,926.859 2052.634,926.999 2063.828,920.595C2074.368,914.564 2075.405,903.752 2075.642,900.312L2148.811,900.206C2150.152,916.941 2149.359,941.752 2128.614,960.839C2104.709,982.833 2064.142,982.994 2053.938,982.997C2024.353,983.004 1996.483,976.764 1971.921,965.599C1945.568,953.619 1921.619,935.956 1903.21,917.179C1878.815,892.297 1865.41,867.021 1860.475,845.682C1854.321,819.068 1859.734,796.328 1878.892,773.241C1893.045,756.186 1916.366,737.599 1946.453,724.153C1971.908,712.776 2000.542,706.424 2028.837,706.388C2038.07,706.376 2070.187,706.613 2092.49,723.127C2111.813,737.434 2118.17,758.403 2121.129,769.765C2125.681,787.235 2124.257,790.578 2134.978,839.777C2136.674,847.556 2136.693,847.32 2138.427,855.164C2140.176,863.077 2140.956,867.385 2141.149,868.453L1945.453,868.868ZM1935.593,817.305L2053.27,816.979C2050.949,800.602 2048.301,786.93 2042.059,778.584C2031.309,764.21 2013.36,763.19 2004.837,763.21C1982.22,763.262 1963.912,772.452 1952.079,784.314C1941.638,794.78 1937.086,806.396 1935.593,817.305ZM2252.954,834.42C2261.335,882.039 2290.899,925.546 2305.286,977.732L2226.957,977.744C2213.987,930.172 2182.418,878.324 2174.6,830.517C2168.146,791.046 2179.424,762.055 2202.618,711.437L2279.078,711.363C2273.914,722.479 2264.917,741.465 2258.347,760.154C2277.993,738.654 2301.893,726.034 2306.41,723.649C2327.534,712.494 2351.987,706.07 2376.827,706.056C2398.881,706.043 2423.033,710.616 2432.927,730.873C2442.237,749.934 2437.34,777.508 2435.272,797.502C2429.259,855.685 2474.383,919.196 2490.782,977.727L2412.382,977.725C2397.383,923.923 2359.096,867.28 2356.764,812.727C2356.634,809.682 2356.767,789.546 2349.202,779.833C2340.753,768.984 2324.499,768.891 2319.757,768.897C2307.374,768.914 2295.198,772.079 2284.969,777.311C2272.344,783.768 2263.645,792.498 2258.693,800.334C2256.968,803.064 2249.247,815.108 2253.081,834.847L2252.954,834.42ZM2513.418,770.83L2464.722,770.839C2471.243,748.943 2484.49,721.912 2489.591,711.238L2539.49,711.235C2548.221,693.864 2557.268,674.858 2564.372,651.643C2614.346,634.918 2644.775,623.847 2648.812,622.385C2646.471,651.179 2633.227,681.511 2620.176,711.23L2693.467,711.225C2691.736,715.83 2679.258,747.962 2673.94,770.8L2597.175,770.814C2587.724,805.574 2589.939,834.929 2609.298,885.769C2613.742,897.437 2621.438,906.716 2630.502,912.421C2644.692,921.35 2662.633,921.305 2666.601,921.305C2674.866,921.305 2680.319,920.013 2681.484,919.737C2682.542,919.486 2688.09,918.172 2694.574,916.079C2695.992,920.154 2707.532,952.417 2712.82,975.653C2706.773,979.307 2696.279,981.141 2694.787,981.402C2692.633,981.778 2682.825,983.492 2667.53,983.492C2629.216,983.492 2602.777,973.041 2583.16,958.667C2557.617,939.95 2537.259,909.948 2526.339,883.164C2505.957,833.17 2505.341,799.928 2513.418,770.83ZM2867.397,982.97C2832.485,982.97 2798.77,976.758 2768.617,959.453C2737.287,941.472 2718.7,917.001 2709.742,894.653L2785.302,894.653C2789.365,904.387 2797.541,914.702 2811.467,921.566C2830.137,930.768 2853.239,930.711 2858.339,930.711C2860.399,930.711 2883.407,931.11 2894.57,923.656C2901.043,919.334 2904.5,912.586 2902.959,903.537C2901.755,896.47 2898.062,891.382 2893.304,888.12C2885.292,882.626 2868.123,879.402 2865.847,878.975L2817.238,870.091C2811.559,869.051 2763.189,860.776 2734.14,840.042C2705.003,819.246 2706.575,796.144 2707.607,788.045C2710.405,766.094 2725.77,744.028 2754.984,727.686C2791.382,707.326 2832.144,705.999 2849.69,705.999C2867.295,705.999 2906.69,707.284 2935.438,727.164C2960.437,744.45 2966.43,767.554 2967.237,785.955L2888.788,785.955C2888.017,777.903 2883.922,770.336 2874.716,765.313C2861.34,758.013 2839.713,758.258 2836.509,758.258C2833.998,758.258 2813.92,758.012 2800.993,764.267C2799.436,765.021 2788.384,770.075 2786.909,781.251C2785.685,790.532 2793.026,795.054 2794.826,796.145C2803.862,801.623 2823.075,805.325 2825.61,805.813L2879.769,815.742C2890.413,817.7 2925.501,824.555 2949.743,846.836C2967.72,863.359 2975.718,882.627 2977.638,900.401C2979.382,916.548 2978.091,942.222 2952.681,961.282C2925.302,981.82 2884.34,982.97 2867.397,982.97ZM465.996,760.007C469.137,739.602 475.473,720.245 484.475,702.463L484.603,702.271C485.278,701.258 491.383,692.09 493.147,689.678C496.187,685.521 501.456,679.168 502.2,678.272C510.074,668.785 510.267,669.153 510.909,668.312C511.741,667.219 512.495,666.067 513.238,664.912C514.515,662.928 515.654,660.856 516.969,658.866L522.205,651.133C528.165,645.327 534.497,639.901 541.163,634.896C540.793,636.623 540.456,637.674 540.339,638.043C538.735,643.112 536.902,646.177 536.51,646.837C536.089,647.547 535.863,647.365 530.385,655.105L524.443,663.879C523.171,665.808 522.057,667.838 520.807,669.781C519.935,671.138 519.044,672.485 518.066,673.768C517.406,674.633 517.221,674.266 509.126,684.02C508.41,684.883 503.336,690.991 500.412,694.99C498.694,697.34 492.752,706.271 492.095,707.258C484.527,718.629 484.455,718.526 483.463,720.415L483.461,720.418C482.756,721.755 482.857,721.72 477.342,735.171L477.341,735.174C475.979,738.483 474.836,741.878 473.49,745.193C472.598,747.387 471.673,749.57 470.614,751.692L470.613,751.694C469.378,754.16 467.668,757.175 465.996,760.007ZM463.765,792.809C465.36,789.833 466.878,786.814 468.566,783.889C473.699,774.998 473.871,775.222 479.008,766.419C484.055,757.749 487.487,751.473 488.208,750.156C492.408,742.452 492.238,742.53 496.216,734.874C500.392,726.809 502.974,721.705 503.555,720.556C510.041,707.729 509.807,707.761 510.486,706.726C514.459,700.678 514.83,701.154 520.815,694.437C521.61,693.542 524.747,690.011 531.004,683.625L531.007,683.622C539.976,674.496 540.084,674.81 540.842,674.013C545.08,669.561 544.507,669.299 548.842,664.861L548.845,664.858C549.611,664.076 550.4,663.315 551.209,662.577C553.401,660.581 555.686,658.687 557.842,656.652C562.642,652.106 562.785,652.426 565.071,649.553C565.439,649.09 567.258,646.786 568.721,643.115C568.996,642.423 569.173,641.692 569.334,640.964C569.677,639.418 569.831,637.834 570.176,636.282L571.733,629.378C571.871,628.57 572.397,625.429 572.366,623.626C572.359,623.25 572.331,622.875 572.278,622.503C572.033,620.78 571.62,619.079 571.441,617.337L571.44,617.327C571.405,616.965 571.373,616.621 571.344,616.292C574.224,614.863 577.144,613.504 580.103,612.216C580.13,613.129 580.206,614.495 580.396,616.437C580.562,618.05 580.96,619.632 581.188,621.237C581.294,621.977 581.352,622.725 581.364,623.472C581.407,625.949 580.686,630.41 580.586,631.007L580.565,631.132L578.959,638.247C578.616,639.79 578.463,641.37 578.121,642.912C577.855,644.111 577.536,645.305 577.082,646.446C575.1,651.42 572.613,654.529 572.114,655.156C569.543,658.388 569.429,658.073 564.023,663.195L564.02,663.198C561.825,665.269 559.501,667.198 557.27,669.231C556.587,669.853 555.921,670.496 555.274,671.156C550.987,675.545 551.557,675.81 547.361,680.218C546.595,681.023 546.489,680.709 537.428,689.928C531.351,696.131 528.306,699.556 527.538,700.421L527.536,700.423C522.041,706.59 521.655,706.115 518.009,711.667C517.374,712.634 517.647,712.631 511.586,724.618C511.002,725.772 508.406,730.905 504.205,739.018L504.204,739.02C500.182,746.76 500.354,746.679 496.107,754.469L496.105,754.471C495.379,755.8 491.901,762.161 486.784,770.951L486.782,770.954C481.654,779.74 481.483,779.515 476.361,788.389C474.647,791.358 473.117,794.428 471.491,797.446C468.793,802.455 468.988,802.397 465.843,807.213C465.414,807.872 465.036,808.444 464.697,808.954C464.167,803.633 463.854,798.248 463.765,792.809ZM468.779,833.624L468.997,832.925L469.065,832.756C470.108,830.163 473.206,824.255 473.589,823.527C476.858,817.315 478.228,815.2 478.452,814.863C481.172,808.602 480.782,808.56 484.229,802.718C485.957,799.789 491.469,787.774 493.308,784.775C495.202,781.679 497.558,778.549 497.953,778.025C500.502,774.644 503.176,771.355 505.609,767.891C515.668,753.571 515.246,753.455 516.136,752.236C517.016,751.03 520.875,745.74 527.755,737.623C528.641,736.577 538.022,726.499 539.584,724.561C542.996,720.325 547.37,713.476 548.005,712.483C550.533,708.532 554.116,701.931 554.631,700.984C560.254,690.587 559.872,690.408 560.443,689.555C562.155,686.999 562.167,687.243 569.223,679.332C569.903,678.567 575.388,672.406 577.685,670.177C578.408,669.473 581.4,666.555 587.199,661.899C593.684,656.692 596.309,655.066 596.841,654.754C599.227,652.452 601.295,649.085 601.648,648.517C602.412,647.278 604.206,642.439 604.875,641.343C605.605,640.153 609.429,635.828 610.038,634.876C610.294,634.477 611.557,632.492 612.57,629.522C612.77,628.936 612.9,628.326 613.023,627.719C613.286,626.423 613.421,625.102 613.691,623.804L614.948,617.81L616.306,611.874L616.367,611.683C617.431,608.404 618.77,605.991 619.035,605.512L619.04,605.503C619.873,604.014 620.501,603.229 621.068,602.575C621.502,602.076 621.888,601.742 622.47,600.594C622.579,600.375 622.668,600.147 622.742,599.915C622.811,599.701 622.876,599.486 622.938,599.269C626.269,598.675 629.63,598.165 633.018,597.744L632.311,599.147C631.87,600.286 631.684,601.511 631.309,602.674C631.094,603.341 630.832,603.995 630.514,604.632L630.509,604.642C629.717,606.209 629.102,607.033 628.528,607.716C628.059,608.274 627.603,608.633 626.898,609.891C626.697,610.254 625.761,611.956 624.988,614.279L623.74,619.737L622.501,625.643C622.235,626.922 622.103,628.226 621.844,629.507C621.644,630.492 621.413,631.476 621.088,632.428C619.705,636.482 617.966,639.185 617.617,639.73C617.021,640.661 613.258,644.883 612.551,646.043L612.547,646.049C611.879,647.136 610.072,652.005 609.301,653.253L609.298,653.258C608.857,653.968 606.017,658.488 602.835,661.473C602.108,662.155 601.864,661.665 592.834,668.916C587.429,673.256 584.637,675.969 583.961,676.628L583.958,676.631C581.773,678.75 576.574,684.609 575.943,685.318L575.941,685.321C569.642,692.383 569.479,692.248 567.999,694.447C567.848,694.822 566.686,697.614 562.543,705.273L562.541,705.276C562.009,706.255 558.24,713.186 555.586,717.334C554.909,718.392 550.232,725.69 546.592,730.207C545.011,732.17 535.519,742.383 534.621,743.442C527.982,751.276 524.255,756.378 523.405,757.543C522.523,758.751 522.946,758.868 512.974,773.064C510.483,776.611 507.749,779.981 505.14,783.442C504.787,783.91 502.676,786.707 500.983,789.476L500.981,789.478C499.157,792.453 493.695,804.384 491.98,807.291C488.791,812.697 489.204,812.712 486.652,818.575C486.32,819.344 486.049,819.175 481.553,827.718C481.212,828.366 478.492,833.514 477.479,835.957L474.76,844.694L474.718,844.808C474.215,846.161 473.596,847.466 472.971,848.769C471.376,843.805 469.975,838.754 468.779,833.624ZM510.341,915.457C510.216,914.788 510.157,914.405 510.132,914.229C508.698,910.098 506.948,907.279 506.586,906.698C504.95,904.09 504.892,904.361 500.188,898.519C493.336,890.01 493.256,890.282 492.748,889.497C492.279,888.772 489.935,885.162 488.175,879.722L488.174,879.716C487.908,878.888 485.989,872.309 486.455,868.98C486.738,866.944 487.581,865.196 487.732,864.888C488.685,862.94 489.915,861.126 490.746,859.123C492.711,854.383 493.677,851.396 493.898,850.712C495.358,846.188 496.033,843.057 496.178,842.381C497.151,837.848 496.484,837.888 497.604,833.432C497.8,832.654 498.712,829.004 500.852,823.945L500.912,823.805L505.431,814.865C508.405,808.4 508.081,808.353 512.382,802.565C521.41,790.391 521.34,790.447 525.024,785.551L525.026,785.55C531.074,777.531 531.09,777.773 537.137,769.694C540.728,764.886 547.084,756.105 547.955,754.902C548.142,754.642 555.93,743.507 557.95,740.89L557.951,740.888C563.089,734.248 563.561,734.788 568.688,728.1C569.644,726.853 569.544,726.925 576.883,716.192L584.575,704.852L584.6,704.816C585.214,703.949 589.624,697.72 592.489,694.141L592.491,694.138C593.143,693.327 595.737,690.093 601.038,684.337C605.172,679.849 605.337,680.224 609.529,675.626L616.625,667.222L624.15,659.592L630.173,652.287L636.803,645.45L642.55,639.106C643.075,638.502 646.438,634.672 646.992,633.694C647.752,632.326 647.541,631.806 647.714,630.927C647.874,630.11 648.141,629.137 648.742,627.799C650.152,624.662 650.703,625.036 652.254,622L654.555,616.234L657.498,610.716C658.398,608.476 658.693,606.733 658.753,606.369C658.798,606.096 658.82,605.819 658.829,605.542C658.883,604.033 658.759,602.514 658.918,601.012L658.935,600.85L659.754,596.274C662.8,596.315 665.828,596.427 668.838,596.607L667.853,602.108C667.742,603.354 667.868,604.612 667.824,605.863C667.8,606.523 667.74,607.183 667.633,607.835C667.544,608.371 667.116,611.008 665.735,614.353L665.65,614.558L662.73,620.032L660.467,625.701L660.381,625.874C658.855,628.913 658.307,628.471 656.95,631.49C656.368,632.784 656.459,633.379 656.338,634.083C656.159,635.114 655.856,636.277 654.842,638.094L654.839,638.101C654.135,639.352 649.795,644.486 649.296,645.065L643.37,651.606L636.887,658.292L630.84,665.627L623.277,673.295L616.295,681.563L616.238,681.625C611.974,686.307 611.828,685.908 607.658,690.435C602.611,695.914 600.135,698.993 599.511,699.77C596.8,703.158 592.649,709.023 591.973,709.978L584.322,721.258L584.317,721.265C576.725,732.367 576.82,732.286 575.831,733.576C570.692,740.279 570.22,739.739 565.072,746.393C563.084,748.968 555.429,759.924 555.25,760.173L555.248,760.175C554.382,761.371 547.967,770.233 544.345,775.084L544.343,775.086C538.285,783.178 538.269,782.936 532.213,790.967C528.542,795.845 528.611,795.79 519.61,807.928L519.609,807.93C515.854,812.983 516.188,813.022 513.534,818.785L509.078,827.601C507.278,831.883 506.499,834.962 506.333,835.625C505.251,839.929 505.917,839.894 504.977,844.271C504.817,845.017 504.076,848.478 502.463,853.476C502.225,854.215 501.184,857.447 499.059,862.571C498.157,864.746 496.85,866.732 495.814,868.847C495.763,868.95 495.464,869.534 495.369,870.225L495.368,870.231C495.071,872.336 496.577,876.446 496.741,876.959C498.116,881.211 499.938,884.041 500.305,884.608C500.772,885.331 500.891,885.043 507.197,892.875C512.384,899.314 512.408,899.042 514.215,901.924L514.218,901.928C514.666,902.647 516.917,906.243 518.716,911.513C518.957,912.221 518.654,912.098 520.693,920.658C522.132,926.696 521.951,926.81 522.682,928.556C518.37,924.383 514.251,920.012 510.341,915.457ZM553.753,953.028C552.274,950.546 551.727,949.935 551.449,949.575L550.623,948.166L550.62,948.16C550.158,947.043 549.807,945.876 549.548,944.695C549.118,942.734 548.94,940.722 548.488,938.765C546.816,931.512 546.919,931.48 546.67,930.89C546.362,930.169 545.967,929.488 545.559,928.819C544.336,926.813 542.906,924.936 541.708,922.836L537.149,914.245L537.128,914.203C534.265,908.526 533.354,906.324 533.172,905.865L527.769,897.564L527.724,897.488C527.29,896.761 523.483,890.283 522.723,888.172C522.115,886.482 522.217,886.556 520.969,878.754C520.855,878.038 519.936,872.254 519.74,869.775C519.37,865.096 519.536,861.327 519.569,860.573C519.689,857.692 519.788,857.794 520.519,851.553C520.604,850.826 521.397,844.141 521.724,842.481L521.752,842.34L524.072,833.556L525.837,824.849L525.838,824.843C527.716,815.693 527.733,815.704 527.847,815.375L527.849,815.37C530.403,808.062 530.928,808.516 535.632,802.622C542.235,794.332 542.247,794.496 548.921,786.21C555.092,778.534 554.95,778.629 561.19,770.876C571.772,757.699 571.827,757.766 572.726,756.608C577.903,749.924 577.531,749.794 582.676,743.144L582.677,743.142C587.637,736.747 587.778,737.094 592.864,730.607C597.402,724.803 597.071,724.768 601.687,718.845L601.689,718.842C602.4,717.932 608.504,710.134 610.796,707.638C613.764,704.406 620.505,698.198 621.372,697.401C622.451,696.409 622.371,696.499 631.999,688.116C640.977,680.299 640.969,680.416 641.702,679.691L641.704,679.689C645.653,675.798 648.003,672.576 648.489,671.908C648.878,671.374 649.247,670.824 649.577,670.253C650.746,668.227 651.743,666.104 652.995,664.058L657.967,656.401L662.759,649.345C663.955,647.315 665.641,643.76 665.982,643.042L668.752,636.646C670.563,631.716 670.357,631.098 670.487,630.702L670.944,629.692L670.948,629.686C671.503,628.746 672.208,627.895 672.945,627.088C674.122,625.8 675.52,624.715 676.614,623.356C677.867,621.797 677.746,621.807 680.383,617.915C682.886,614.22 683.32,613.759 683.557,613.307C683.669,612.492 684.28,608.11 684.704,607.199C685.213,606.103 688.751,602.036 689.222,601.262L689.226,601.256C689.717,600.455 690.094,599.734 690.381,599.115C693.406,599.641 696.407,600.237 699.382,600.902C698.94,602.122 698.182,603.869 696.904,605.95C696.559,606.518 693.746,609.985 692.965,610.944C692.811,612.073 692.292,615.761 691.976,616.529L691.973,616.537C691.637,617.343 691.66,617.316 687.834,622.963C684.904,627.288 685.02,627.263 683.627,628.996C682.416,630.502 680.893,631.732 679.589,633.159C679.404,633.362 679.213,633.565 679.039,633.78C678.849,634.708 678.368,636.583 677.151,639.883L677.108,640L674.18,646.759L674.147,646.827C673.868,647.416 671.81,651.742 670.42,654.071L670.353,654.184L665.464,661.38L660.601,668.871C659.439,670.782 658.49,672.815 657.372,674.752C656.884,675.598 656.341,676.414 655.766,677.204C655.211,677.966 652.535,681.651 648.025,686.096C647.263,686.849 647.282,686.744 637.909,694.904C628.448,703.141 628.524,703.051 627.464,704.025C626.642,704.781 620.239,710.661 617.425,713.725C615.249,716.095 609.471,723.5 608.783,724.381C604.165,730.307 604.496,730.342 599.95,736.156L599.948,736.158C594.876,742.627 594.735,742.281 589.791,748.655C584.647,755.304 585.019,755.434 579.837,762.124L579.836,762.126C578.928,763.295 578.879,763.223 568.204,776.515L568.202,776.517C561.962,784.271 562.105,784.174 555.933,791.852L555.932,791.854C549.271,800.123 549.26,799.958 542.668,808.234L542.666,808.235C538.937,812.909 538.39,812.513 536.391,818.206C536.317,818.564 535.895,820.609 534.655,826.648L532.841,835.601L530.529,844.357C530.214,846.086 529.535,851.947 529.458,852.601C528.781,858.38 528.672,858.28 528.561,860.958L528.561,860.964C528.532,861.612 528.385,864.936 528.712,869.065C528.893,871.348 529.751,876.673 529.856,877.333C530.886,883.769 530.689,883.728 531.191,885.123C531.806,886.829 534.87,891.906 535.406,892.8L540.962,901.335L541.032,901.459C541.41,902.128 541.144,902.176 545.144,910.11L549.601,918.509C550.714,920.445 552.081,922.227 553.243,924.134C553.877,925.174 554.473,926.244 554.953,927.37L554.955,927.376C555.256,928.088 555.257,928.064 557.258,936.742C557.717,938.731 557.902,940.774 558.339,942.767C558.455,943.299 558.601,943.827 558.788,944.338C559.327,945.03 560.939,947.269 563.979,952.81L564.036,952.913L568.073,961.272C563.173,958.724 558.396,955.972 553.753,953.028ZM588.15,970.296L583.902,964.476L583.833,964.37C580.663,959.47 579.114,956.138 578.762,955.384L578.76,955.379C578.384,954.569 578.046,953.74 577.741,952.901C577.001,950.868 576.432,948.771 575.614,946.767L571.772,938.369L571.747,938.311C571.449,937.607 569.092,932.013 568.326,929.394C566.89,924.487 566.561,920.833 566.493,920.091C566.375,918.846 566.805,913.23 566.609,911.772C566.284,909.359 566.085,909.568 564.414,904.106C562.663,898.383 562.863,898.369 561.907,896.347C561.636,895.78 561.334,895.227 561.004,894.693C559.681,892.547 558.191,890.505 556.93,888.323C556.496,887.575 552.737,881.017 552.077,879.224C551.799,878.477 550.467,874.935 550.092,869.468C550.006,868.205 550.062,866.934 550.143,865.67C550.255,863.914 550.546,862.172 550.633,860.415L550.919,851.904L551.001,843.064L552.002,834.185C552.568,825.992 552.184,826 552.262,825.299C552.346,824.525 552.746,820.788 554.076,815.729L554.077,815.723C555.983,808.547 555.925,808.604 560.535,802.806L560.536,802.804C562.652,800.149 567.072,795.209 567.653,794.56C569.957,791.987 572.32,789.468 574.573,786.851C586.254,773.285 586.046,773.15 587.077,771.985L587.079,771.984C591.807,766.653 599.035,759.147 600.093,758.048C600.414,757.715 610.665,747.779 612.672,745.413C614.709,743.006 614.508,742.984 620.903,733.504C628.251,722.578 627.999,722.425 628.726,721.541C631.383,718.31 631.482,718.526 639.724,710.589C640.562,709.781 643.251,707.192 650.356,700.659C659.612,692.128 659.686,692.245 660.474,691.484L660.476,691.482C663.098,688.953 668.174,683.517 668.831,682.813C669.425,682.177 674.882,676.356 676.128,674.738L676.131,674.735C676.561,674.178 676.965,673.599 677.343,673.005C678.657,670.941 679.785,668.757 681.258,666.667L687.191,659.073C687.71,658.3 688.182,657.495 688.647,656.688C689.52,655.173 690.299,653.605 691.194,652.076L695.332,645.169C696.832,642.262 697.642,640.076 697.911,639.318L699.545,632.807L699.602,632.638C699.798,632.055 701.158,628.09 702.633,625.572C703.164,624.663 706.517,620.691 707.058,619.706C707.189,619.463 707.31,619.213 707.397,618.951C707.902,617.426 708.2,615.834 708.767,614.331C710.297,610.277 709.95,610.269 711.674,607.63C711.977,607.166 713.038,606.003 714.129,604.819C717.242,605.78 720.321,606.817 723.364,607.929C722.011,609.423 719.676,611.837 719.209,612.552C717.946,614.486 718.308,614.538 717.188,617.508C716.664,618.897 716.407,620.373 715.94,621.781C715.686,622.548 715.352,623.29 714.964,624.007L714.96,624.013C714.408,625.024 710.955,629.166 710.405,630.11L710.401,630.116C709.376,631.864 708.454,634.549 708.188,635.34L706.541,641.903L706.475,642.092C706.264,642.698 705.279,645.545 703.254,649.444L703.191,649.565L698.934,656.668C698.068,658.151 697.303,659.691 696.446,661.179C695.844,662.226 695.226,663.265 694.546,664.263L694.463,664.384L688.485,672.037C687.187,673.896 686.153,675.927 684.935,677.839C684.411,678.661 683.851,679.462 683.256,680.233C681.912,681.977 676.048,688.272 675.407,688.958C674.724,689.689 669.451,695.329 666.726,697.957C665.93,698.727 665.851,698.617 656.451,707.28L656.45,707.282C649.444,713.723 646.793,716.276 645.967,717.072C638.279,724.475 638.156,724.243 635.677,727.257C634.995,728.087 635.276,728.261 628.368,738.531L628.366,738.534C621.535,748.66 621.718,748.656 619.539,751.231L619.537,751.233C617.469,753.672 606.908,763.947 606.576,764.291C605.538,765.368 598.451,772.727 593.814,777.954C592.791,779.109 592.997,779.248 581.393,792.723C579.102,795.384 576.7,797.948 574.358,800.563C573.804,801.182 569.591,805.882 567.576,808.412C564.147,812.724 564.195,812.689 562.778,818.025C561.737,821.987 561.352,825.009 561.236,826.029C561.277,826.607 561.385,828.99 560.967,835.01L559.997,843.611L559.917,852.097L559.625,860.786L559.624,860.819C559.537,862.633 559.24,864.432 559.124,866.244C559.069,867.112 559.012,867.985 559.071,868.853C559.349,872.906 560.309,875.538 560.516,876.098L560.518,876.104C561.084,877.641 564.364,883.202 564.719,883.813L564.721,883.818C565.94,885.927 567.387,887.896 568.665,889.969C569.165,890.781 569.624,891.62 570.037,892.486L570.039,892.492C571.152,894.843 570.988,894.831 573.02,901.474C574.998,907.937 575.143,907.714 575.528,910.57C575.733,912.089 575.329,917.943 575.453,919.247L575.454,919.254C575.51,919.873 575.79,922.856 576.964,926.866C577.628,929.136 579.656,933.909 580.009,934.74L583.872,943.184L583.905,943.264C584.787,945.405 585.405,947.646 586.198,949.822C586.416,950.421 586.656,951.012 586.923,951.59C587.234,952.256 588.587,955.136 591.321,959.376L597.383,967.681L597.413,967.723C597.809,968.292 600.687,972.448 602.347,975.096C597.534,973.676 592.799,972.073 588.15,970.296ZM626.789,980.604L625.389,978.765L619.183,970.592C613.572,963.211 613.617,963.319 612.877,962.205C609.734,957.472 608.164,954.135 607.817,953.401C606.874,951.405 604.781,945.333 604.538,944.623C602.634,939.058 602.094,936.891 601.987,936.427C601.354,935.017 598.338,929.627 597.83,928.105L597.828,928.099C597.572,927.326 595.927,922.104 596.241,918.042L596.241,918.035C596.29,917.422 596.554,916.323 597.024,915.023C597.574,913.498 598.698,910.329 598.884,909.804C598.846,909.526 598.723,909.335 598.5,908.757C598.092,907.705 597.452,906.109 596.449,903.441L593.2,895.436L589.356,887.33L589.347,887.311C585.962,879.995 585.972,880.145 585.447,878.627C583.656,873.441 583.307,870.052 583.226,869.302C583.093,868.097 583.683,862.575 583.44,861.107C583.198,859.648 580.814,854.079 580.54,852.89L580.538,852.884C580.368,852.136 579.541,848.547 579.462,843.375C579.409,840.492 580.083,834.801 580.184,833.967L581.625,825.167C582.67,816.751 582.336,816.824 582.465,816.103C583.74,808.991 583.734,809.051 588.144,803.11C589.101,801.82 593.947,795.29 600.797,787.517C607.394,780.031 607.746,780.599 614.493,773.17C615.432,772.134 622.403,764.452 625.791,760.002C627.109,758.267 628.235,756.519 628.436,756.208C630.353,753.236 632.135,750.173 634.184,747.291C637.332,742.862 637.379,742.995 643.471,735.119C651.542,724.683 651.624,724.783 652.307,723.865C659.725,713.896 659.306,713.757 659.986,712.933C660.731,712.03 665.82,705.894 670.124,702.376C672.021,700.826 682.009,694.717 683.718,693.35L683.72,693.348C686.618,691.035 686.365,690.906 692.137,684.893L700.026,676.332L700.112,676.248C704.503,671.964 704.932,672.72 709.075,668.36C712.445,664.813 714.082,661.999 714.44,661.377C714.763,660.811 715.036,660.214 715.267,659.604C715.921,657.872 716.37,656.067 717.044,654.325L719.97,646.937L720.005,646.858C721.797,642.795 721.391,642.735 723.797,639.192C724.699,637.859 729.542,632.557 730.091,631.961L736.331,625.475C736.877,624.849 738.81,622.606 741.041,619.49C741.906,618.281 742.593,617.265 743.132,616.433C745.831,617.777 748.495,619.183 751.12,620.649C750.453,621.706 749.552,623.062 748.359,624.729C745.736,628.392 743.482,630.97 742.958,631.57L736.643,638.133C736.059,638.764 732.01,643.113 731.25,644.237L731.247,644.241C729.31,647.093 729.686,647.196 728.275,650.408L725.426,657.604C724.769,659.303 724.33,661.081 723.685,662.786C723.287,663.84 722.81,664.869 722.248,665.852L722.246,665.856C721.809,666.615 719.8,670.139 715.6,674.559C711.365,679.015 710.919,678.293 706.481,682.608L698.694,691.059L698.662,691.093C692.283,697.736 692.525,697.835 689.337,700.38C687.639,701.738 677.706,707.803 675.821,709.344C672.033,712.44 667.584,717.866 666.928,718.66C666.271,719.457 666.695,719.604 659.528,729.237C658.837,730.166 658.755,730.067 650.59,740.625C644.643,748.314 644.593,748.181 641.52,752.504C639.549,755.277 637.843,758.228 635.999,761.087C635.768,761.444 634.472,763.453 632.954,765.45L632.953,765.452C629.413,770.102 622.133,778.142 621.158,779.218L621.157,779.219C614.455,786.599 614.102,786.032 607.549,793.468C600.957,800.948 596.292,807.232 595.371,808.473C592.283,812.635 592.23,812.643 591.36,817.488C591.358,817.998 591.298,820.314 590.535,826.449L589.096,835.24C588.982,836.171 588.416,840.812 588.46,843.216L588.46,843.223C588.524,847.371 589.169,850.25 589.31,850.872C589.605,852.137 592.061,858.082 592.318,859.634C592.576,861.188 592.031,867.036 592.173,868.318L592.173,868.325C592.238,868.927 592.541,871.596 593.954,875.689C594.428,877.061 594.453,876.913 597.506,883.511L601.442,891.813L604.832,900.165L604.853,900.221C607.828,908.141 607.888,908.135 607.896,909.943C607.902,910.717 607.685,911.964 607.218,913.391C606.647,915.137 605.366,918.521 605.2,918.96C605.074,921.569 606.212,924.786 606.369,925.264C606.862,926.739 609.943,932.095 610.382,933.171C610.652,933.834 610.369,933.865 613.053,941.709C613.27,942.343 615.113,947.775 615.955,949.557C616.258,950.198 617.635,953.101 620.374,957.226C621.074,958.28 621.043,958.168 626.349,965.147L632.554,973.318C638.761,981.472 639.131,982.043 639.186,982.15C635.014,981.766 630.88,981.249 626.789,980.604ZM659.602,982.954C654.834,976.045 654.786,976.13 654.409,975.439C653.068,972.985 653.241,972.978 650.829,966.62L647.946,958.495L644.679,950.514L641.319,942.393L638.352,934.225L638.334,934.174C636.629,929.104 636.081,926.941 635.935,926.304L632.238,918.633L628.898,910.632C626.24,904.866 625.512,903.891 625.241,903.393L624.686,901.99C624.499,901.263 624.456,901.276 624.382,892.786L624.408,884.678C624.326,878.491 624.457,878.556 624.24,877.242C623.855,874.9 622.388,870.891 622.06,869.998L618.516,861.698L618.462,861.542C618.222,860.84 617.12,857.639 616.129,852.57L616.102,852.431L614.986,843.905C613.908,838.058 613.428,836.974 613.246,836.447L612.923,834.936L612.922,834.929C612.77,832.953 613.492,826.086 613.576,825.333C614.134,820.217 614.82,816.787 614.97,816.038C616.31,809.242 616.505,809.413 620.047,803.632L620.048,803.629C624.538,796.319 624.002,796.177 628.566,788.815C629.286,787.652 632.224,782.911 638.039,774.589C638.851,773.428 639.671,772.272 640.508,771.128C642.92,767.831 645.373,764.565 647.786,761.266L647.788,761.264C656.355,749.584 656.27,749.651 657.031,748.658C661.645,742.638 661.782,743.006 666.501,736.85C670.723,731.341 670.52,731.412 674.617,725.724C681.714,715.844 681.597,715.786 682.239,714.947C682.883,714.104 685.326,710.907 690.665,704.711C691.351,703.913 696.017,698.486 699.38,695.029C703.909,690.36 704.241,690.835 708.683,686.131C712.558,682.029 712.087,681.751 715.907,677.538C719.819,673.224 719.997,673.626 723.921,669.303C728.001,664.809 729.868,662.312 730.344,661.672C734.669,655.868 734.67,655.053 734.954,654.562L735.528,653.743C736.013,653.167 735.998,653.195 743.521,645.997L751.142,638.767L758.649,631.656C760.474,629.923 761.813,628.654 762.801,627.719C765.366,629.399 767.889,631.137 770.368,632.933C769.26,633.989 767.541,635.623 764.843,638.186L757.333,645.298L749.729,652.514C744.269,657.737 743.145,658.765 742.69,659.232C742.282,660.083 741.015,662.414 737.561,667.049C737.043,667.745 735.02,670.467 730.585,675.352C726.662,679.674 726.484,679.272 722.574,683.584C718.692,687.865 719.164,688.142 715.227,692.311C710.742,697.059 710.412,696.583 705.835,701.3L705.834,701.302C702.611,704.615 698.14,709.821 697.488,710.581L697.486,710.583C692.356,716.536 690.006,719.605 689.387,720.415C688.758,721.236 688.878,721.298 681.924,730.979L681.922,730.981C677.743,736.782 677.948,736.708 673.644,742.325C668.925,748.481 668.788,748.113 664.174,754.133C663.422,755.113 663.508,755.049 655.046,766.586C652.635,769.881 650.183,773.147 647.772,776.442C646.973,777.533 646.191,778.636 645.416,779.745C639.769,787.825 636.915,792.428 636.215,793.556C631.661,800.903 632.197,801.046 627.72,808.335C625.018,812.746 624.822,812.595 623.798,817.791L623.797,817.796C623.662,818.472 623.035,821.615 622.522,826.315L622.521,826.321C622.456,826.909 621.862,831.852 621.881,833.855C622.161,834.669 622.874,837.036 623.859,842.395L623.88,842.509L624.991,850.991C625.783,855.002 626.642,857.638 626.924,858.472L630.43,866.682L630.471,866.794C630.728,867.498 632.626,872.774 633.121,875.779C633.377,877.332 633.309,877.25 633.408,884.633L633.382,892.761C633.415,896.557 633.432,898.728 633.439,899.572C633.931,900.422 635.076,902.532 637.143,907.019L640.451,914.943L644.295,922.919L644.357,923.077C644.607,923.716 644.309,923.704 646.848,931.254L649.711,939.135L653.002,947.089L656.356,955.283L659.275,963.508C661.343,968.962 661.143,968.994 662.307,971.124C662.665,971.78 662.737,971.639 667.664,978.791L670.206,982.531C666.696,982.767 663.16,982.908 659.602,982.954ZM691.566,979.901C690.623,978.388 688.245,974.521 687.066,972.167C685.655,969.349 683.82,964.422 683.533,963.649L680.913,955.545L680.9,955.502C680.701,954.843 679.141,949.647 678.621,947.21L678.593,947.081L677.374,939.084C676.443,933.931 676.66,933.92 675.972,932.028C674.616,928.3 672.911,925.943 672.562,925.465C671.636,924.195 666.448,919.153 665.58,918.037C665.09,917.407 662.545,914.136 660.308,909.562C659.987,908.904 658.574,906.041 657.2,900.96C655.988,896.476 655.696,892.993 655.637,892.291C655.535,891.088 655.871,885.801 655.725,884.442C655.575,883.044 654.264,877.904 654.071,877.139L651.844,868.899L650.54,860.596L648.928,852.56L646.689,844.226L646.674,844.16C645.446,838.971 644.994,835.949 644.884,835.222L644.883,835.216C644.774,834.472 644.01,829.201 643.983,825.879C643.974,825.105 643.929,821.337 644.729,816.226L644.73,816.22C645.821,809.374 645.917,809.497 649.618,803.721C658.045,790.537 658.215,790.668 658.928,789.511C661.286,785.676 666.056,777.134 666.663,776.047L666.665,776.044C667.272,774.961 667.872,773.874 668.465,772.784C670.228,769.546 671.953,766.289 673.734,763.061C679.686,752.273 679.552,752.383 680.831,750.4C682.331,748.068 682.37,748.143 689.531,738.462C693.748,732.759 693.732,732.935 697.857,727.355L705.56,716.79C712.213,707.367 711.988,707.232 712.616,706.45C715.22,703.203 715.305,703.369 721.743,696.602L730.672,687.456L730.675,687.453C738.43,679.544 738.316,679.616 739.503,678.523C744.304,674.094 744.699,674.734 749.369,670.185L749.371,670.184C750.136,669.44 750.856,668.649 751.559,667.845C753.209,665.956 754.718,663.945 756.419,662.098L756.421,662.096C763.064,654.902 763.514,654.82 764.058,654.234L770.174,646.42L776.971,638.616L777.33,638.221C779.682,640.091 781.988,642.015 784.248,643.991L783.694,644.6L777.116,652.154L770.976,659.997L770.894,660.09C770.299,660.77 770.1,660.549 763.036,668.198C761.391,669.985 759.934,671.938 758.336,673.767C757.473,674.755 756.584,675.723 755.644,676.637C750.891,681.267 750.496,680.626 745.604,685.14L745.602,685.142C744.455,686.197 744.579,686.127 737.105,693.75L728.223,702.848C722.189,709.19 722.09,709.022 719.636,712.081C719.036,712.83 719.273,712.973 712.873,722.036L705.112,732.682L705.103,732.694C700.968,738.287 700.988,738.107 696.766,743.814C689.889,753.112 689.841,753.029 688.399,755.272L688.397,755.275C687.17,757.177 687.316,757.074 681.614,767.409C679.842,770.622 678.124,773.865 676.37,777.088C675.759,778.209 675.142,779.327 674.518,780.441C673.893,781.559 669.008,790.3 666.594,794.226C665.875,795.394 665.705,795.263 657.198,808.573L657.197,808.575C654.511,812.766 654.41,812.667 653.619,817.629C652.944,821.943 652.975,825.126 652.982,825.787L652.982,825.793C653.006,828.674 653.686,833.218 653.786,833.894C653.886,834.561 654.303,837.31 655.417,842.023L657.695,850.505L659.401,859.012L660.659,867.021L662.78,874.866L662.79,874.906C662.961,875.587 664.495,881.817 664.674,883.483C664.823,884.876 664.5,890.297 664.604,891.531C664.653,892.105 664.898,894.949 665.888,898.611C667.004,902.74 668.132,905.075 668.394,905.609C670.215,909.334 672.285,911.998 672.684,912.512C673.576,913.658 678.882,918.858 679.834,920.162C680.301,920.803 682.612,923.952 684.43,928.952C685.265,931.249 685.1,931.235 686.251,937.596L687.451,945.46C687.941,947.686 689.28,952.119 689.504,952.861L692.039,960.701C692.361,961.57 693.905,965.724 695.113,968.138C696.376,970.659 699.165,975.081 699.537,975.672C699.684,975.906 700.258,976.824 700.984,977.958C697.873,978.682 694.733,979.33 691.566,979.901ZM724.524,970.869L723.378,968.694L723.335,968.603C721.293,964.266 720.508,962.09 720.224,961.19C718.818,959.623 713.834,955.139 713.169,954.161L713.166,954.156C711.046,951.02 711.527,951.018 709.739,945.336L709.701,945.213L707.775,937.592C707.492,936.765 706.574,934.173 704.883,930.796L704.88,930.79C704.044,929.108 701.171,924.313 700.777,923.655L696.071,915.973L692.577,908.27L688.736,900.731L688.706,900.665C688.4,900.015 685.738,894.28 685.176,892.401C684.932,891.588 684.736,890.758 684.596,889.921C684.282,888.036 684.161,886.12 683.782,884.247C683.666,883.671 682.768,879.172 682.111,877.066L678.898,869.155L678.843,868.981C678.597,868.2 678.389,867.406 678.212,866.607C677.786,864.69 677.526,862.736 677.025,860.838L674.441,852.63L672.298,844.138L672.293,844.115C670.272,835.742 670.272,835.777 670.197,834.947C669.872,831.346 670.571,826.002 670.675,825.243C670.846,823.961 672.446,818.052 672.611,816.478C673.246,810.214 672.239,810.166 674.783,804.448L674.784,804.445C680.668,791.269 680.551,791.325 681.136,790.225C683.877,785.071 684.043,785.27 689.543,776.621C696.997,764.868 697.128,765.064 697.744,764.032C704.422,752.849 703.881,752.567 704.512,751.629C705.433,750.259 706.44,748.946 707.472,747.658C709.579,745.031 711.859,742.544 713.917,739.878C718.179,734.355 717.816,734.308 722.114,728.808L722.115,728.806C722.492,728.325 722.868,727.843 723.256,727.372C725.78,724.317 728.363,721.309 730.853,718.226C738.636,708.59 738.351,708.603 739.082,707.831L739.084,707.829C741.103,705.703 749.121,698.722 750.011,697.949C759.988,689.283 760.13,689.524 760.98,688.759C766.209,684.038 769.278,680.728 769.965,679.986C770.91,678.963 771.807,677.895 772.695,676.821C774.201,674.997 775.629,673.109 777.146,671.282L784.349,662.674C787.481,658.669 789.705,655.415 790.26,654.598L792.252,651.391C794.461,653.552 796.619,655.765 798.723,658.029L797.808,659.503L797.756,659.579C797.271,660.293 794.847,663.865 791.341,668.342L784.06,677.044C782.555,678.856 781.134,680.737 779.633,682.553C778.64,683.756 777.633,684.949 776.573,686.097L776.571,686.099C775.844,686.883 772.58,690.412 767.007,695.443L767.005,695.445C766.145,696.22 766.007,695.977 755.912,704.744C755.075,705.471 747.517,712.02 745.613,714.024C744.925,714.751 745.215,714.767 737.855,723.881C735.344,726.99 732.74,730.023 730.195,733.104C729.857,733.514 729.531,733.934 729.203,734.352C724.924,739.828 725.287,739.876 721.041,745.377C718.95,748.087 716.635,750.619 714.493,753.289C713.65,754.341 712.823,755.409 712.072,756.513C711.964,756.837 711.041,759.32 705.472,768.646C704.845,769.695 704.717,769.499 697.14,781.447L697.138,781.449C691.878,789.722 691.704,789.522 689.082,794.451C688.52,795.508 688.652,795.463 683.004,808.11C681.05,812.502 682.054,812.576 681.564,817.402L681.563,817.408C681.395,819.021 679.772,825.115 679.595,826.442L679.594,826.448C679.511,827.058 678.903,831.286 679.161,834.137C679.225,834.85 679.304,834.803 681.036,841.98L683.104,850.175L685.67,858.325L685.695,858.42C686.244,860.471 686.538,862.583 686.998,864.656C687.106,865.144 687.23,865.629 687.377,866.115L690.576,873.99L690.626,874.144C691.373,876.446 692.468,881.791 692.604,882.462C693.003,884.435 693.142,886.454 693.473,888.441C693.551,888.907 693.662,889.368 693.798,889.821C694.261,891.369 696.441,895.968 696.82,896.771L700.689,904.366L704.037,911.747L708.477,918.994L708.49,919.015C708.857,919.63 712.022,924.938 712.933,926.772C715.064,931.027 716.136,934.22 716.361,934.888L716.416,935.053L718.361,942.752C719.612,946.762 719.098,946.859 720.621,949.115C721.356,950.179 727.117,955.298 727.882,956.373L728.645,957.916C728.799,958.395 728.985,959.467 731.435,964.68L732.927,967.511C730.158,968.694 727.356,969.814 724.524,970.869ZM753.978,956.95C752.596,955.072 749.786,951.757 749.315,950.863C748.878,950.031 748.516,949.156 748.237,948.26C747.698,946.531 747.482,944.7 746.805,943.013L746.802,943.007C746.601,942.499 745.008,938.257 743.894,936.829C743.411,936.217 742.838,935.68 742.265,935.152C740.427,933.458 738.402,931.969 736.624,930.206L736.621,930.203C736.034,929.619 731.443,925.021 729.606,922.586C728.852,921.586 728.188,920.518 727.552,919.439C726.677,917.956 725.941,916.393 725.052,914.918L720.512,907.467L716.611,899.839L716.574,899.759C716.269,899.099 713.554,893.072 713.178,891.333C712.983,890.439 712.863,889.522 712.838,888.607C712.789,886.761 713.008,884.909 712.882,883.066C712.838,882.445 712.532,877.999 712.113,875.976C711.999,875.422 711.236,871.583 710.119,869.188C708.151,865.003 707.436,865.597 705.254,861.481C704.678,860.395 704.171,859.274 703.684,858.147C702.958,856.47 702.331,854.752 701.6,853.071L701.598,853.065C697.895,844.486 697.971,844.641 697.903,844.437C697.658,843.713 696.73,840.985 695.691,835.341L695.69,835.335C695.554,834.583 694.566,828.987 694.566,825.854C694.564,824.944 694.61,824.031 694.715,823.127C694.973,820.92 695.413,818.735 695.626,816.523C696.219,810.374 695.909,810.368 698.422,804.605C703.877,792.045 703.371,791.958 703.871,790.889C707.206,783.771 710.499,778.433 711.145,777.386L711.146,777.383C715.659,770.089 719.347,765.475 720.133,764.491L720.134,764.489C721.8,762.407 729.407,754.394 730.855,752.63C731.558,751.771 734.723,747.901 739.021,741.541C742.457,736.457 742.214,736.459 745.67,730.701L751.937,720.04L751.939,720.036C752.474,719.13 752.916,717.449 753.71,715.68C754.882,713.072 756.588,710.362 759.235,708.41L759.236,708.409C762.438,706.051 776.199,701.263 779.407,699.065C779.627,698.914 781.03,697.996 781.88,696.828C783.427,694.702 784.612,692.314 786.298,690.269L794.224,680.835L794.256,680.799C801.767,672.241 801.904,672.511 802.526,671.749L802.528,671.746C803.076,671.076 803.61,670.392 804.117,669.689C804.845,668.681 805.553,667.657 806.262,666.632C808.258,669.049 810.197,671.516 812.075,674.03C811.856,674.341 811.636,674.65 811.413,674.958C810.801,675.806 810.159,676.631 809.497,677.441C808.862,678.219 808.729,677.953 801.052,686.699L793.211,696.031C791.664,697.915 790.593,700.15 789.159,702.121C787.532,704.359 784.92,706.196 784.498,706.486L784.497,706.487C782.768,707.672 778.221,709.606 773.649,711.502C769.846,713.079 766.01,714.598 764.574,715.655C762.918,716.877 762.133,718.784 761.502,720.355C760.794,722.119 760.244,723.672 759.694,724.604L753.408,735.297L753.397,735.315C749.798,741.31 750.048,741.298 746.478,746.581C741.917,753.33 738.555,757.432 737.814,758.337L737.812,758.339C736.376,760.089 728.818,768.043 727.161,770.112C726.425,771.033 722.999,775.331 718.802,782.116C718.197,783.097 715.129,788.074 712.021,794.707C711.529,795.758 712.037,795.847 706.676,808.193L706.675,808.196C704.739,812.636 705.041,812.653 704.585,817.386C704.366,819.658 703.919,821.903 703.654,824.171C703.59,824.724 703.565,825.283 703.566,825.847L703.566,825.853C703.566,828.443 704.423,833.054 704.544,833.72C705.409,838.419 706.168,840.777 706.41,841.498C706.532,841.781 707.303,843.572 709.86,849.496C710.589,851.174 711.218,852.895 711.944,854.574C712.337,855.483 712.741,856.39 713.205,857.265C715.492,861.578 716.203,860.975 718.27,865.371L718.272,865.377C719.72,868.478 720.778,873.433 720.926,874.151C721.419,876.528 721.812,881.768 721.861,882.441L721.861,882.449C721.996,884.416 721.782,886.394 721.835,888.365C721.845,888.72 721.897,889.073 721.974,889.427L721.976,889.434C722.256,890.735 724.319,895.078 724.701,895.892L728.372,903.07L732.751,910.256L732.756,910.265C733.662,911.767 734.414,913.358 735.305,914.869C735.768,915.654 736.242,916.438 736.791,917.166C738.396,919.294 742.427,923.284 742.966,923.82C744.662,925.502 746.607,926.914 748.363,928.533C749.291,929.388 750.195,930.281 750.978,931.278L750.981,931.282C752.511,933.239 754.885,938.976 755.165,939.681C755.924,941.578 756.221,943.63 756.829,945.581C756.946,945.958 757.098,946.325 757.281,946.674C757.715,947.499 760.073,950.341 761.566,952.308C759.076,953.911 756.546,955.459 753.978,956.95Z"
				/>
			</g>
		</g>
	</g>
</svg>
