<?xml version="1.0" encoding="UTF-8" standalone="no"?>
<!DOCTYPE svg PUBLIC "-//W3C//DTD SVG 1.1//EN" "http://www.w3.org/Graphics/SVG/1.1/DTD/svg11.dtd">
<svg width="100%" height="100%" viewBox="0 0 390 398" version="1.1" xmlns="http://www.w3.org/2000/svg" xmlns:xlink="http://www.w3.org/1999/xlink" xml:space="preserve" xmlns:serif="http://www.serif.com/" style="fill-rule:evenodd;clip-rule:evenodd;stroke-linejoin:round;stroke-miterlimit:2;">
    <g transform="matrix(1,0,0,1,-955.771321,-1159.850769)">
        <g id="Test-piu-rarefatto" serif:id="Test piu rarefatto">
        </g>
        <g id="Test-piu-rarefatto1" serif:id="Test piu rarefatto" transform="matrix(0.722559,0,0,0.722559,908.94712,1116.303956)">
            <clipPath id="_clip1">
                <circle cx="334.5" cy="334.5" r="267.6"/>
            </clipPath>
            <g clip-path="url(#_clip1)">
                <g transform="matrix(1.234618,0,0,1.31785,-1254.76612,-1488.009996)">
                    <ellipse cx="1287.253" cy="1382.942" rx="216.747" ry="203.058" style="fill:white;"/>
                </g>
                <g transform="matrix(1.303163,0,0,1.303163,-6.062083,-699.244887)">
                    <g transform="matrix(0.879372,0,0,0.879372,16.671836,521.85)">
                        <path d="M43.58,250.148L43.507,250.039L43.617,249.768L43.726,249.93C43.726,249.929 43.727,249.928 43.728,249.927L43.618,249.764C45.253,245.742 46.64,241.621 48.289,237.618C55.396,220.283 55.332,220.321 56.238,218.604C57.523,216.157 57.565,216.25 67.394,201.484C68.214,200.251 75.642,189.1 77.788,186.166C81.497,181.093 87.927,173.339 88.835,172.245C96.169,163.409 98.963,160.577 99.407,160.139C100.312,158.935 101.135,157.672 101.95,156.406C103.498,153.999 104.88,151.486 106.485,149.058L113.778,138.289L113.828,138.218C118.262,131.951 120.279,129.46 120.849,128.781C121.239,128.096 122.016,126.65 122.861,124.53C124.59,120.197 129.512,118.081 133.845,119.81C138.179,121.538 140.294,126.46 138.566,130.794C137.001,134.718 135.571,137.109 135.19,137.751C134.672,138.624 134.406,138.41 127.679,147.915L120.518,158.49C118.998,160.799 117.665,163.227 116.169,165.553C115.072,167.258 113.95,168.952 112.721,170.564C111.918,171.617 111.697,171.174 101.846,183.043C100.99,184.074 94.929,191.37 91.436,196.146C89.377,198.962 82.256,209.669 81.468,210.853C72.478,224.359 72.381,224.23 71.201,226.475L71.198,226.48C70.36,228.071 70.491,228.035 63.93,244.037L63.928,244.043C62.285,248.034 60.907,252.131 59.282,256.13L51.45,261.401C51.45,261.401 51.553,261.408 51.737,261.405L51.334,261.686C46.668,261.686 42.88,257.898 42.88,253.232C42.88,252.035 43.13,250.895 43.58,250.148ZM51.737,261.405L59.277,256.142C57.304,260.99 52.902,261.387 51.737,261.405Z"/>
                    </g>
                    <g transform="matrix(0.879372,0,0,0.879372,16.671836,521.85)">
                        <path d="M59.81,337.697C63.061,330.191 62.64,330.075 66.854,322.931C68.945,319.387 75.62,304.85 77.845,301.219C80.199,297.37 83.128,293.478 83.618,292.827C86.676,288.771 89.885,284.826 92.805,280.669C104.982,263.334 104.472,263.195 105.549,261.719C106.623,260.248 111.328,253.797 119.718,243.899C120.784,242.64 132.076,230.514 133.955,228.182C138,223.161 143.181,215.039 143.933,213.863C146.942,209.16 151.205,201.302 151.824,200.163C158.738,187.38 158.287,187.169 158.989,186.12C161.109,182.954 161.108,183.243 169.848,173.444C170.695,172.491 177.406,164.959 180.215,162.234C181.104,161.368 184.784,157.776 191.92,152.045C199.172,146.223 202.528,144.021 203.596,143.365C206.165,140.803 208.341,137.216 208.69,136.654C209.612,135.162 211.773,129.328 212.583,127.998C213.477,126.545 218.11,121.292 218.851,120.137C219.128,119.703 220.494,117.547 221.593,114.324C221.793,113.738 221.916,113.128 222.039,112.521C222.357,110.951 222.521,109.351 222.849,107.776L224.374,100.508L226.049,93.181L226.165,92.823C227.542,88.58 229.274,85.458 229.62,84.833L229.63,84.816C231.404,81.647 232.085,82.211 233.715,78.994C233.774,78.873 233.821,78.745 233.862,78.617C234.202,77.562 234.423,76.467 234.736,75.404C236.054,70.928 240.757,68.364 245.233,69.682C249.709,70.999 252.273,75.702 250.956,80.178C250.603,81.378 250.339,82.61 249.955,83.801C249.649,84.751 249.274,85.683 248.819,86.594L248.81,86.613C247.018,90.158 246.341,89.583 244.392,93.059C244.17,93.461 243.188,95.254 242.358,97.708L240.89,104.128L239.4,111.23C239.08,112.769 238.922,114.339 238.61,115.88C238.343,117.197 238.03,118.511 237.595,119.784C235.801,125.043 233.541,128.548 233.089,129.255C232.374,130.372 227.853,135.432 227.002,136.827L226.995,136.838C226.188,138.153 224.004,144.036 223.07,145.548L223.064,145.558C222.497,146.469 218.842,152.257 214.76,156.087C213.868,156.924 213.58,156.337 202.506,165.229C196.112,170.364 192.806,173.572 192.004,174.353L191.999,174.358C189.402,176.878 183.224,183.846 182.472,184.691L182.467,184.696C175.312,192.719 174.888,192.814 173.292,195.152C172.897,196.091 171.297,199.7 166.688,208.221L166.684,208.227C166.034,209.424 161.421,217.901 158.176,222.975C157.344,224.275 151.593,233.239 147.121,238.789C145.205,241.168 133.704,253.547 132.616,254.831C124.678,264.196 120.222,270.296 119.206,271.688C118.143,273.144 118.654,273.286 106.64,290.388C103.612,294.699 100.291,298.797 97.12,303.004C96.708,303.55 94.241,306.815 92.263,310.05L92.26,310.054C90.062,313.639 83.483,328.019 81.416,331.523C77.659,337.891 78.156,337.913 75.153,344.814C74.744,345.759 74.424,345.558 68.895,356.064C68.499,356.816 65.369,362.725 64.144,365.638L61.442,374.323C60.056,378.778 55.313,381.269 50.858,379.883C46.403,378.496 43.912,373.754 45.298,369.299L48.213,359.932L48.341,359.614C49.632,356.406 53.459,349.091 53.933,348.19C57.598,341.226 59.324,338.448 59.81,337.697Z"/>
                    </g>
                    <g transform="matrix(0.879372,0,0,0.879372,16.671836,521.85)">
                        <path d="M307.329,94.464C307.605,92.672 308.34,88.115 308.828,87.066C309.418,85.797 313.973,80.119 314.605,79.334C315.286,78.195 315.753,77.213 316.061,76.446C317.8,72.116 322.728,70.014 327.057,71.754C331.386,73.493 333.489,78.421 331.749,82.75C331.152,84.236 330.245,86.177 328.879,88.402C328.495,89.033 325.63,92.589 324.391,94.12C324.12,95.923 323.5,99.884 323.138,100.762L323.132,100.778C322.7,101.814 322.769,101.805 317.846,109.071C314.209,114.439 314.348,114.405 312.618,116.556C311.116,118.424 309.236,119.957 307.619,121.727C307.583,121.766 307.546,121.805 307.509,121.844C307.182,123.204 306.539,125.435 305.278,128.856L305.196,129.076L301.606,137.362L301.545,137.491C301.198,138.223 298.636,143.599 296.908,146.494L296.781,146.706L290.846,155.444L285.006,164.441C283.628,166.713 282.501,169.13 281.172,171.432C280.53,172.545 279.817,173.62 279.06,174.66C278.366,175.613 275.025,180.218 269.392,185.77C268.46,186.69 268.485,186.567 257.034,196.537C245.664,206.436 245.756,206.326 244.482,207.498C243.504,208.397 235.885,215.387 232.537,219.032C229.95,221.85 223.087,230.654 222.258,231.715C216.68,238.873 217.08,238.915 211.587,245.94L211.584,245.944C205.464,253.751 205.292,253.333 199.328,261.023C193.116,269.052 193.565,269.21 187.306,277.291L187.303,277.294C186.204,278.709 186.145,278.623 173.223,294.713L173.221,294.716C165.685,304.079 165.858,303.963 158.403,313.236L158.401,313.239C150.362,323.22 150.349,323.02 142.391,333.009L142.389,333.012C138.244,338.205 137.555,337.795 135.361,343.996L133.312,353.969L131.104,364.863L128.319,375.411C127.942,377.546 127.165,384.298 127.076,385.06C126.277,391.883 126.142,391.764 126.01,394.93L126.01,394.943C125.976,395.695 125.807,399.557 126.186,404.353C126.399,407.045 127.415,413.322 127.54,414.1C128.71,421.416 128.44,421.377 129.011,422.962C129.7,424.874 133.112,430.479 133.817,431.648L140.553,441.997L140.685,442.23C141.146,443.048 140.828,443.104 145.703,452.775L151.044,462.838C152.37,465.14 153.998,467.258 155.381,469.526C156.222,470.906 157.008,472.329 157.646,473.826L157.651,473.837C158.031,474.735 158.068,474.696 160.593,485.647C161.149,488.058 161.375,490.537 161.905,492.955C161.987,493.325 162.082,493.693 162.196,494.054C163.079,495.247 165.053,498.149 168.415,504.278L168.521,504.47L170.129,507.799C172.158,512.001 170.394,517.059 166.193,519.088C161.991,521.118 156.933,519.354 154.904,515.152L153.484,512.214C147.781,501.837 147.252,502.244 146.85,501.28L146.845,501.269C146.219,499.756 145.741,498.176 145.39,496.577C144.873,494.218 144.661,491.799 144.118,489.446C142.803,483.744 142.145,480.881 141.999,480.243C141.697,479.58 141.324,478.95 140.944,478.328C139.453,475.881 137.71,473.588 136.226,470.987L130.685,460.543L130.645,460.465C127.486,454.201 126.257,451.368 125.873,450.437L119.475,440.607L119.389,440.464C118.843,439.547 114.063,431.355 113.103,428.691C112.332,426.55 112.425,426.651 110.844,416.771C110.703,415.887 109.573,408.747 109.331,405.687C108.87,399.858 109.076,395.159 109.118,394.207C109.265,390.66 109.382,390.783 110.283,383.092C110.389,382.195 111.371,373.951 111.775,371.903L111.827,371.639L114.631,361.022L116.746,350.589L116.748,350.579C119.093,339.155 119.137,339.173 119.28,338.759L119.284,338.749C122.541,329.428 123.173,329.984 129.173,322.466C137.152,312.451 137.167,312.648 145.231,302.636C152.682,293.367 152.511,293.481 160.046,284.119C172.795,268.245 172.863,268.322 173.946,266.928C180.196,258.859 179.747,258.701 185.961,250.669L185.964,250.665C191.958,242.938 192.129,243.356 198.274,235.517C203.753,228.511 203.354,228.467 208.927,221.315L208.931,221.311C209.801,220.196 217.278,210.652 220.085,207.596C223.72,203.637 231.975,196.029 233.037,195.053C234.346,193.849 234.248,193.958 245.932,183.785C256.642,174.461 256.636,174.605 257.512,173.739L257.517,173.734C262.097,169.221 264.825,165.486 265.389,164.711C265.796,164.152 266.184,163.578 266.529,162.979C267.954,160.511 269.171,157.924 270.718,155.397L276.761,146.089L282.512,137.621C283.88,135.283 285.763,131.313 286.205,130.381L289.498,122.778C291.622,116.982 291.374,116.249 291.529,115.779C291.529,115.779 292.34,113.985 292.347,113.973L292.354,113.962C293.13,112.647 294.106,111.45 295.136,110.323C296.514,108.814 298.162,107.552 299.443,105.96C300.91,104.135 300.762,104.143 303.848,99.588C305.643,96.938 306.776,95.275 307.329,94.464Z"/>
                    </g>
                    <g transform="matrix(0.879372,0,0,0.879372,16.671836,521.85)">
                        <path d="M292.631,224.623C292.23,225.303 290.125,228.734 283.584,237.526C282.746,238.651 282.648,238.532 272.755,251.323C265.622,260.547 265.561,260.386 261.874,265.572C259.521,268.884 257.485,272.41 255.283,275.825C254.994,276.272 253.371,278.785 251.472,281.285L251.469,281.289C247.144,286.97 238.251,296.797 237.058,298.113L237.056,298.116C228.977,307.012 228.551,306.327 220.652,315.29C212.778,324.226 207.205,331.733 206.104,333.216C202.857,337.59 202.737,337.675 201.852,342.588C201.833,343.557 201.696,346.577 200.828,353.555L199.089,364.179C198.937,365.416 198.303,370.602 198.352,373.324L198.353,373.336C198.424,377.991 199.14,381.228 199.307,381.96C199.687,383.552 202.657,390.81 202.972,392.709C203.269,394.505 202.876,402.925 202.844,403.591C202.959,404.556 203.374,407.41 204.823,411.606C205.378,413.214 205.419,413.036 208.992,420.757L213.777,430.849L217.919,441.053L217.958,441.157C221.859,451.543 221.814,451.573 221.825,453.936C221.835,455.085 221.55,456.945 220.857,459.062C220.245,460.934 218.934,464.398 218.554,465.397C218.542,468.01 219.675,471.047 219.827,471.507C220.41,473.256 224.085,479.597 224.604,480.873C224.936,481.686 224.597,481.721 227.891,491.346C228.144,492.086 230.286,498.431 231.269,500.512C231.619,501.254 233.218,504.615 236.391,509.393C237.223,510.645 237.191,510.509 243.496,518.803L250.988,528.669L256.001,535.252C258.827,538.964 258.108,544.272 254.396,547.099C250.684,549.926 245.375,549.207 242.549,545.494L237.529,538.903L230.033,529.032C223.154,519.983 223.214,520.113 222.307,518.746C218.375,512.827 216.415,508.651 215.981,507.733C214.808,505.25 212.196,497.703 211.894,496.821C209.779,490.639 209.026,487.843 208.798,486.918C207.886,484.969 204.391,478.665 203.784,476.846L203.78,476.833C203.442,475.81 201.305,468.888 201.72,463.504L201.721,463.49C201.793,462.593 202.148,460.975 202.836,459.07C203.332,457.694 204.262,455.134 204.72,453.872C204.27,452.722 203.357,450.368 202.169,447.207L198.292,437.656L193.682,427.931L193.665,427.895C189.469,418.827 189.491,419.008 188.841,417.125C186.552,410.496 186.114,406.161 186.012,405.21C185.871,403.939 186.171,396.94 186.237,395.444C185.704,394.005 183.114,386.982 182.825,385.734L182.823,385.722C182.606,384.77 181.549,380.2 181.447,373.622C181.381,370.011 182.215,362.882 182.349,361.778L184.091,351.137C185.362,340.891 184.963,340.979 185.121,340.098C186.785,330.817 186.773,330.893 192.527,323.139C193.696,321.565 199.609,313.596 207.967,304.112C215.95,295.053 216.375,295.739 224.537,286.751C225.664,285.509 233.974,276.356 238.014,271.051C239.54,269.042 240.842,267.02 241.074,266.66C243.414,263.032 245.592,259.296 248.093,255.777C251.92,250.393 251.975,250.555 259.381,240.979C269.096,228.418 269.196,228.539 270.019,227.433C279.061,215.281 278.557,215.116 279.386,214.111C280.316,212.984 286.676,205.337 292.048,200.946C294.341,199.071 306.422,191.679 308.491,190.024L308.494,190.021C311.894,187.307 311.588,187.14 318.344,180.102L327.905,169.725L328.066,169.568C333.327,164.435 333.846,165.347 338.81,160.123C342.6,156.135 344.451,152.976 344.858,152.268C345.169,151.723 345.43,151.148 345.652,150.561C346.445,148.462 346.99,146.274 347.812,144.152L351.37,135.165L351.436,135.016C353.715,129.853 353.222,129.785 356.277,125.286C357.409,123.612 363.472,116.944 364.182,116.174L371.692,108.368C372.395,107.56 374.606,104.977 377.149,101.426C378.301,99.816 379.189,98.49 379.862,97.437C382.371,93.503 387.602,92.347 391.535,94.856C395.469,97.366 396.625,102.597 394.116,106.53C393.318,107.781 392.265,109.356 390.896,111.268C387.64,115.816 384.84,119.017 384.144,119.813L376.486,127.772C375.724,128.593 371.145,133.481 370.278,134.764L370.273,134.772C368.099,137.973 368.533,138.119 366.974,141.686L363.55,150.333C362.765,152.369 362.239,154.498 361.468,156.538C360.931,157.96 360.286,159.348 359.527,160.675L359.523,160.683C358.967,161.65 356.415,166.141 351.067,171.769C345.932,177.174 345.38,176.325 340.03,181.517L330.661,191.685L330.601,191.748C322.705,199.971 322.992,200.082 319.048,203.231C317,204.868 305.022,212.178 302.749,214.036C298.618,217.413 293.819,223.184 292.631,224.623Z"/>
                    </g>
                    <g transform="matrix(0.879372,0,0,0.879372,16.671836,521.85)">
                        <path d="M405.243,143.001L412.459,133.783L420.741,124.274L421.396,123.553C424.536,120.102 429.887,119.848 433.338,122.988C436.79,126.127 437.043,131.478 433.904,134.93L433.371,135.516L425.5,144.554L418.082,154.03L417.928,154.205C417.205,155.031 416.966,154.764 408.387,164.054C406.418,166.192 404.677,168.531 402.764,170.72C401.668,171.974 400.539,173.203 399.344,174.364C393.576,179.982 393.1,179.209 387.16,184.688L387.157,184.691C385.786,185.953 385.937,185.871 377.009,194.977L366.298,205.949C359.146,213.465 359.021,213.263 356.109,216.894C355.392,217.786 355.683,217.962 348.038,228.787L338.646,241.671L338.629,241.693C333.636,248.448 333.659,248.23 328.561,255.123C320.351,266.223 320.29,266.121 318.566,268.8L318.563,268.805C317.1,271.074 317.279,270.955 310.478,283.281C308.34,287.157 306.269,291.069 304.152,294.956C303.409,296.32 302.659,297.68 301.9,299.036C301.137,300.401 295.2,311.021 292.266,315.791C291.396,317.206 291.191,317.048 280.891,333.164L280.888,333.168C277.986,337.697 277.862,337.586 277.007,342.944C276.234,347.888 276.267,351.535 276.275,352.297L276.275,352.309C276.302,355.628 277.092,360.855 277.213,361.668C277.33,362.451 277.821,365.673 279.124,371.196L281.889,381.488L283.981,391.92L285.485,401.493L288.01,410.837L288.029,410.912C288.244,411.767 290.154,419.591 290.378,421.682C290.56,423.376 290.174,429.969 290.301,431.468C290.356,432.119 290.636,435.339 291.757,439.487C293.019,444.154 294.285,446.796 294.581,447.4C296.641,451.613 298.982,454.627 299.433,455.208C300.518,456.603 306.967,462.935 308.124,464.522C308.728,465.351 311.721,469.42 314.072,475.884C315.13,478.793 314.949,478.769 316.413,486.86L317.854,496.302C318.438,498.915 319.958,503.941 320.245,504.889L323.281,514.279C323.708,515.432 325.458,520.134 326.837,522.889C328.32,525.85 331.599,531.039 332.036,531.734C332.132,531.887 332.375,532.274 332.716,532.812C335.216,536.751 334.047,541.979 330.107,544.479C326.167,546.978 320.939,545.809 318.44,541.869C318.08,541.303 317.823,540.894 317.722,540.733C317.215,539.927 313.438,533.893 311.719,530.459C309.964,526.954 307.677,520.828 307.299,519.809L304.106,509.933L304.082,509.853C303.836,509.038 301.911,502.611 301.267,499.598L301.215,499.354L299.735,489.646C298.687,483.835 298.963,483.809 298.183,481.663C296.701,477.588 294.844,475.007 294.463,474.485C293.353,472.963 287.128,466.926 286.088,465.589C285.465,464.788 282.231,460.635 279.391,454.826C278.983,453.99 277.18,450.354 275.435,443.899C273.897,438.209 273.529,433.788 273.453,432.897C273.331,431.455 273.742,425.114 273.567,423.485C273.396,421.895 271.905,416.111 271.652,415.112L268.924,405.021L267.334,394.896L265.419,385.348L262.729,375.334L262.7,375.21C261.183,368.8 260.626,365.067 260.49,364.165L260.489,364.153C260.351,363.222 259.402,356.622 259.368,352.47C259.358,351.495 259.298,346.749 260.307,340.308L260.308,340.296C261.726,331.399 261.842,331.554 266.651,324.049C276.8,308.169 277.007,308.328 277.865,306.933C280.694,302.334 286.415,292.087 287.144,290.781L287.147,290.776C287.874,289.479 288.592,288.176 289.303,286.87C291.435,282.956 293.521,279.017 295.674,275.114C302.944,261.937 302.789,262.068 304.35,259.648C306.181,256.801 306.225,256.889 314.968,245.068C320.06,238.185 320.041,238.395 325.018,231.663L334.3,218.931C342.42,207.43 342.153,207.27 342.92,206.314C346.114,202.332 346.213,202.531 354.124,194.215L364.923,183.154L364.929,183.147C374.4,173.488 374.253,173.589 375.699,172.258C381.467,166.937 381.944,167.71 387.556,162.243L387.559,162.24C388.425,161.398 389.238,160.503 390.033,159.594C392.043,157.294 393.883,154.845 395.956,152.593L395.96,152.589C402.011,146.037 404.601,143.589 405.243,143.001Z"/>
                    </g>
                    <g transform="matrix(0.879372,0,0,0.879372,16.671836,521.85)">
                        <path d="M347.408,315.822C347.222,316.454 345.916,320.663 340.87,332.282L340.868,332.288C338.724,337.203 339.086,337.229 338.581,342.469C338.315,345.234 337.774,347.966 337.451,350.724C337.387,351.274 337.364,351.829 337.365,352.394L337.365,352.406C337.365,355.374 338.371,360.67 338.496,361.358C339.454,366.562 340.293,369.281 340.606,370.23L344.718,379.761C345.599,381.787 346.358,383.865 347.235,385.892C347.678,386.917 348.131,387.94 348.654,388.927C351.451,394.2 352.309,393.472 354.837,398.85L354.842,398.861C356.701,402.843 358.077,409.2 358.268,410.123C358.886,413.107 359.391,419.685 359.452,420.535L359.453,420.549C359.618,422.967 359.362,425.397 359.427,427.82C359.433,428.058 359.473,428.295 359.527,428.542L359.53,428.556C359.835,429.969 362.07,434.587 362.57,435.639L366.94,444.185L372.174,452.773L372.184,452.79C373.283,454.613 374.197,456.542 375.277,458.375C375.779,459.226 376.287,460.077 376.881,460.865C378.752,463.344 383.468,467.991 384.053,468.575C386.076,470.58 388.398,472.261 390.493,474.19C391.732,475.332 392.933,476.53 393.98,477.863L393.987,477.871C395.973,480.411 399.097,487.83 399.466,488.756C400.411,491.12 400.796,493.671 401.553,496.101C401.612,496.29 401.682,496.477 401.764,496.657C402.297,497.334 405.264,501.103 406.616,502.91C409.412,506.645 408.649,511.947 404.914,514.743C401.179,517.539 395.876,516.776 393.08,513.041C391.07,510.356 387.555,505.982 386.924,504.783C386.311,503.617 385.803,502.39 385.411,501.133C384.785,499.122 384.551,496.986 383.761,495.018L383.756,495.005C383.538,494.456 381.878,489.84 380.672,488.291C380.19,487.68 379.608,487.152 379.036,486.625C376.789,484.555 374.317,482.731 372.141,480.573L372.135,480.567C371.402,479.837 365.677,474.087 363.384,471.047C362.404,469.748 361.538,468.363 360.712,466.961C359.662,465.18 358.778,463.303 357.712,461.532L352.174,452.444L347.385,443.079L347.315,442.928C346.924,442.084 343.487,434.354 343.003,432.123C342.728,430.86 342.56,429.566 342.526,428.274C342.467,426.085 342.734,423.89 342.585,421.708C342.531,420.955 342.192,415.87 341.712,413.551C341.585,412.936 340.763,408.677 339.525,406.02C337.181,401.037 336.317,401.751 333.716,396.847C332.984,395.466 332.337,394.04 331.717,392.605C330.842,390.582 330.085,388.509 329.201,386.476L329.197,386.466C324.63,375.885 324.727,376.058 324.643,375.808C324.334,374.89 323.166,371.471 321.865,364.407L321.863,364.395C321.691,363.445 320.458,356.37 320.457,352.408C320.455,351.191 320.517,349.972 320.658,348.763C320.967,346.117 321.496,343.499 321.751,340.848C322.513,332.948 322.137,332.944 325.364,325.541C331.983,310.3 331.373,310.196 331.981,308.899C336.083,300.142 340.135,293.575 340.93,292.286L340.933,292.281C346.487,283.303 351.026,277.626 351.995,276.413L351.998,276.41C354.014,273.891 363.214,264.196 364.967,262.06C365.806,261.036 369.562,256.439 374.663,248.893C378.766,242.821 378.476,242.817 382.598,235.95L390.162,223.083L390.166,223.077C390.774,222.046 391.247,220.125 392.15,218.114C393.761,214.526 396.143,210.826 399.785,208.14L399.788,208.138C403.668,205.28 420.342,199.459 424.229,196.795C424.428,196.659 425.717,195.86 426.483,194.807C428.387,192.19 429.856,189.258 431.939,186.731L441.542,175.302L441.602,175.233C450.606,164.974 450.774,165.3 451.52,164.385L451.524,164.381C452.148,163.618 452.755,162.84 453.332,162.04C453.89,161.268 454.437,160.488 454.98,159.705C457.642,155.873 462.914,154.922 466.746,157.583C470.578,160.245 471.529,165.517 468.868,169.349C468.265,170.217 467.658,171.082 467.04,171.939C466.266,173.01 465.454,174.055 464.617,175.078C463.845,176.024 463.686,175.705 454.368,186.319L444.922,197.563C443.101,199.787 441.848,202.427 440.157,204.752C437.931,207.812 434.372,210.34 433.794,210.737L433.791,210.739C431.613,212.232 425.902,214.704 420.141,217.093C415.825,218.883 411.446,220.552 409.816,221.751C408.301,222.87 407.694,224.685 407.116,226.122C406.191,228.427 405.45,230.444 404.733,231.659L397.135,244.584L397.115,244.618C392.724,251.931 393.027,251.915 388.671,258.36C383.076,266.639 378.952,271.669 378.041,272.782L378.038,272.785C376.307,274.894 367.197,284.478 365.199,286.973C364.325,288.068 360.276,293.151 355.314,301.172C354.601,302.328 351.033,308.12 347.408,315.822Z"/>
                    </g>
                    <g transform="matrix(0.879372,0,0,0.879372,16.671836,521.85)">
                        <path d="M458.692,225.697C459.43,224.598 461.567,221.416 466.633,213.866L474.874,201.516L474.892,201.49C476.343,199.35 477.52,197.62 478.479,196.215C481.11,192.362 486.375,191.37 490.228,194.001C494.081,196.632 495.073,201.896 492.442,205.749C491.495,207.137 490.333,208.843 488.903,210.953L480.684,223.269L480.678,223.278C471.43,237.06 471.404,236.894 471.316,236.986C469.134,239.274 457.285,248.014 455.395,249.788L455.392,249.791C449.324,255.476 445.718,260.529 444.981,261.565C440.812,267.448 441.486,267.698 438.333,274.073C437.792,275.17 438.125,275.056 432.069,288.021C431.51,289.217 427.08,298.69 424.871,302.873C424.225,304.097 424.06,303.985 416.265,317.949C415.6,319.14 409.47,330.105 408.104,332.924L408.102,332.93C405.989,337.274 406.196,337.266 405.996,342.067C405.964,342.818 405.809,346.637 406.399,351.461C406.475,352.08 406.926,356.38 407.753,359.103C408.613,360.323 410.469,363.219 413.538,369.256L413.661,369.499L417.794,379.12L423.195,388.348L423.253,388.454C426.632,394.626 427.936,397.616 428.296,398.435L428.4,398.671L431.754,407.771L435.679,416.662L435.765,416.893C436.627,419.2 437.074,421.643 437.783,424.003C437.906,424.411 438.047,424.815 438.219,425.205C438.81,426.545 442.732,432.571 443.329,434.067C444.176,436.191 444.499,437.729 444.662,439.019C444.802,440.118 444.384,440.771 445.118,442.592C446.074,444.963 448.85,448.748 449.212,449.259C449.649,449.877 451.668,452.72 455.143,456.539L457.583,458.953C460.899,462.234 460.928,467.591 457.647,470.908C454.365,474.225 449.008,474.253 445.691,470.972L442.946,468.256L442.802,468.099C438.46,463.347 435.95,459.789 435.409,459.024C434.867,458.258 430.873,452.474 429.438,448.915C428.578,446.784 428.247,445.242 428.078,443.95C427.937,442.868 428.329,442.216 427.696,440.518C427.394,440.018 423.274,433.219 422.747,432.024C422.297,431.001 421.915,429.945 421.593,428.875C421.011,426.941 420.685,424.929 420.002,423.015L416.072,414.115L412.71,404.995C412.284,404.037 411.107,401.483 408.479,396.677L402.673,386.756L398.339,376.67C394.209,368.568 393.337,368.091 392.973,367.475L392.252,365.986C390.765,362.139 389.741,354.528 389.617,353.516C388.853,347.276 389.062,342.336 389.103,341.363C389.45,333.03 389.23,333.077 392.89,325.548C394.331,322.573 400.798,310.968 401.501,309.709C409.118,296.063 409.28,296.193 409.914,294.988L409.917,294.982C412.014,291.013 416.219,282.001 416.75,280.864C422.946,267.603 422.613,267.723 423.169,266.594L423.172,266.589C426.923,259.005 426.237,258.772 431.193,251.779L431.196,251.775C432.081,250.53 436.447,244.372 443.828,237.456C445.539,235.852 455.853,228.333 458.692,225.697Z"/>
                    </g>
                    <g transform="matrix(0.879372,0,0,0.879372,16.671836,521.85)">
                        <path d="M502.488,275.994C502.376,276.774 501.851,280.185 500.083,289.075L497.177,302.912C495.963,309.906 496.638,309.941 495.264,317.02L495.262,317.028C494.496,320.932 491.755,330.727 491.416,331.93C489.992,337.03 489.722,336.877 489.54,342.138C489.435,345.18 489.997,351.202 490.068,352L490.069,352.011C490.129,352.712 490.567,358.228 491.084,360.845C491.471,361.763 492.561,364.526 494.554,370.818L494.558,370.829C494.822,371.669 496.766,377.92 497.483,381.447C497.999,383.988 497.902,386.618 498.222,389.191C498.226,389.218 498.229,389.245 498.234,389.272C498.764,390.111 499.762,391.745 501.205,394.336C503.474,398.413 502.006,403.565 497.929,405.834C493.852,408.103 488.7,406.635 486.431,402.558C482.814,396.059 482.664,396.145 482.379,395.315C481.931,394.01 481.615,392.651 481.444,391.282C481.177,389.135 481.344,386.934 480.914,384.813C480.315,381.868 478.67,376.67 478.43,375.906C475.266,365.917 474.928,366.039 474.721,365.158C474.024,362.192 473.314,354.509 473.225,353.486C473.139,352.52 472.515,345.235 472.642,341.554C472.895,334.257 473.157,334.455 475.137,327.364L475.139,327.356C475.443,326.276 477.968,317.347 478.669,313.779C480.02,306.819 479.326,306.832 480.575,299.696L483.518,285.689C486.244,271.978 485.965,272.096 486.343,270.954C487.642,267.04 492.604,257.463 493.205,256.318C495.117,252.675 496.528,250.102 497.58,248.259C499.892,244.206 505.059,242.793 509.112,245.105C513.165,247.417 514.578,252.584 512.266,256.637C511.282,258.361 509.964,260.768 508.177,264.174C507.692,265.098 503.701,272.591 502.488,275.994Z"/>
                    </g>
                </g>
                <g transform="matrix(1.303163,0,0,1.303163,-6.062083,-699.244887)">
                    <g transform="matrix(0.879372,0,0,0.879372,16.671836,521.85)">
                        <path d="M43.58,250.148L43.507,250.039L43.617,249.768L43.726,249.93C43.726,249.929 43.727,249.928 43.728,249.927L43.618,249.764C45.253,245.742 46.64,241.621 48.289,237.618C55.396,220.283 55.332,220.321 56.238,218.604C57.523,216.157 57.565,216.25 67.394,201.484C68.214,200.251 75.642,189.1 77.788,186.166C81.497,181.093 87.927,173.339 88.835,172.245C96.169,163.409 98.963,160.577 99.407,160.139C100.312,158.935 101.135,157.672 101.95,156.406C103.498,153.999 104.88,151.486 106.485,149.058L113.778,138.289L113.828,138.218C118.262,131.951 120.279,129.46 120.849,128.781C121.239,128.096 122.016,126.65 122.861,124.53C124.59,120.197 129.512,118.081 133.845,119.81C138.179,121.538 140.294,126.46 138.566,130.794C137.001,134.718 135.571,137.109 135.19,137.751C134.672,138.624 134.406,138.41 127.679,147.915L120.518,158.49C118.998,160.799 117.665,163.227 116.169,165.553C115.072,167.258 113.95,168.952 112.721,170.564C111.918,171.617 111.697,171.174 101.846,183.043C100.99,184.074 94.929,191.37 91.436,196.146C89.377,198.962 82.256,209.669 81.468,210.853C72.478,224.359 72.381,224.23 71.201,226.475L71.198,226.48C70.36,228.071 70.491,228.035 63.93,244.037L63.928,244.043C62.285,248.034 60.907,252.131 59.282,256.13L51.45,261.401C51.45,261.401 51.553,261.408 51.737,261.405L51.334,261.686C46.668,261.686 42.88,257.898 42.88,253.232C42.88,252.035 43.13,250.895 43.58,250.148ZM51.737,261.405L59.277,256.142C57.304,260.99 52.902,261.387 51.737,261.405Z"/>
                    </g>
                    <g transform="matrix(0.879372,0,0,0.879372,16.671836,521.85)">
                        <path d="M59.81,337.697C63.061,330.191 62.64,330.075 66.854,322.931C68.945,319.387 75.62,304.85 77.845,301.219C80.199,297.37 83.128,293.478 83.618,292.827C86.676,288.771 89.885,284.826 92.805,280.669C104.982,263.334 104.472,263.195 105.549,261.719C106.623,260.248 111.328,253.797 119.718,243.899C120.784,242.64 132.076,230.514 133.955,228.182C138,223.161 143.181,215.039 143.933,213.863C146.942,209.16 151.205,201.302 151.824,200.163C158.738,187.38 158.287,187.169 158.989,186.12C161.109,182.954 161.108,183.243 169.848,173.444C170.695,172.491 177.406,164.959 180.215,162.234C181.104,161.368 184.784,157.776 191.92,152.045C199.172,146.223 202.528,144.021 203.596,143.365C206.165,140.803 208.341,137.216 208.69,136.654C209.612,135.162 211.773,129.328 212.583,127.998C213.477,126.545 218.11,121.292 218.851,120.137C219.128,119.703 220.494,117.547 221.593,114.324C221.793,113.738 221.916,113.128 222.039,112.521C222.357,110.951 222.521,109.351 222.849,107.776L224.374,100.508L226.049,93.181L226.165,92.823C227.542,88.58 229.274,85.458 229.62,84.833L229.63,84.816C231.404,81.647 232.085,82.211 233.715,78.994C233.774,78.873 233.821,78.745 233.862,78.617C234.202,77.562 234.423,76.467 234.736,75.404C236.054,70.928 240.757,68.364 245.233,69.682C249.709,70.999 252.273,75.702 250.956,80.178C250.603,81.378 250.339,82.61 249.955,83.801C249.649,84.751 249.274,85.683 248.819,86.594L248.81,86.613C247.018,90.158 246.341,89.583 244.392,93.059C244.17,93.461 243.188,95.254 242.358,97.708L240.89,104.128L239.4,111.23C239.08,112.769 238.922,114.339 238.61,115.88C238.343,117.197 238.03,118.511 237.595,119.784C235.801,125.043 233.541,128.548 233.089,129.255C232.374,130.372 227.853,135.432 227.002,136.827L226.995,136.838C226.188,138.153 224.004,144.036 223.07,145.548L223.064,145.558C222.497,146.469 218.842,152.257 214.76,156.087C213.868,156.924 213.58,156.337 202.506,165.229C196.112,170.364 192.806,173.572 192.004,174.353L191.999,174.358C189.402,176.878 183.224,183.846 182.472,184.691L182.467,184.696C175.312,192.719 174.888,192.814 173.292,195.152C172.897,196.091 171.297,199.7 166.688,208.221L166.684,208.227C166.034,209.424 161.421,217.901 158.176,222.975C157.344,224.275 151.593,233.239 147.121,238.789C145.205,241.168 133.704,253.547 132.616,254.831C124.678,264.196 120.222,270.296 119.206,271.688C118.143,273.144 118.654,273.286 106.64,290.388C103.612,294.699 100.291,298.797 97.12,303.004C96.708,303.55 94.241,306.815 92.263,310.05L92.26,310.054C90.062,313.639 83.483,328.019 81.416,331.523C77.659,337.891 78.156,337.913 75.153,344.814C74.744,345.759 74.424,345.558 68.895,356.064C68.499,356.816 65.369,362.725 64.144,365.638L61.442,374.323C60.056,378.778 55.313,381.269 50.858,379.883C46.403,378.496 43.912,373.754 45.298,369.299L48.213,359.932L48.341,359.614C49.632,356.406 53.459,349.091 53.933,348.19C57.598,341.226 59.324,338.448 59.81,337.697Z"/>
                    </g>
                    <g transform="matrix(0.879372,0,0,0.879372,16.671836,521.85)">
                        <path d="M307.329,94.464C307.605,92.672 308.34,88.115 308.828,87.066C309.418,85.797 313.973,80.119 314.605,79.334C315.286,78.195 315.753,77.213 316.061,76.446C317.8,72.116 322.728,70.014 327.057,71.754C331.386,73.493 333.489,78.421 331.749,82.75C331.152,84.236 330.245,86.177 328.879,88.402C328.495,89.033 325.63,92.589 324.391,94.12C324.12,95.923 323.5,99.884 323.138,100.762L323.132,100.778C322.7,101.814 322.769,101.805 317.846,109.071C314.209,114.439 314.348,114.405 312.618,116.556C311.116,118.424 309.236,119.957 307.619,121.727C307.583,121.766 307.546,121.805 307.509,121.844C307.182,123.204 306.539,125.435 305.278,128.856L305.196,129.076L301.606,137.362L301.545,137.491C301.198,138.223 298.636,143.599 296.908,146.494L296.781,146.706L290.846,155.444L285.006,164.441C283.628,166.713 282.501,169.13 281.172,171.432C280.53,172.545 279.817,173.62 279.06,174.66C278.366,175.613 275.025,180.218 269.392,185.77C268.46,186.69 268.485,186.567 257.034,196.537C245.664,206.436 245.756,206.326 244.482,207.498C243.504,208.397 235.885,215.387 232.537,219.032C229.95,221.85 223.087,230.654 222.258,231.715C216.68,238.873 217.08,238.915 211.587,245.94L211.584,245.944C205.464,253.751 205.292,253.333 199.328,261.023C193.116,269.052 193.565,269.21 187.306,277.291L187.303,277.294C186.204,278.709 186.145,278.623 173.223,294.713L173.221,294.716C165.685,304.079 165.858,303.963 158.403,313.236L158.401,313.239C150.362,323.22 150.349,323.02 142.391,333.009L142.389,333.012C138.244,338.205 137.555,337.795 135.361,343.996L133.312,353.969L131.104,364.863L128.319,375.411C127.942,377.546 127.165,384.298 127.076,385.06C126.277,391.883 126.142,391.764 126.01,394.93L126.01,394.943C125.976,395.695 125.807,399.557 126.186,404.353C126.399,407.045 127.415,413.322 127.54,414.1C128.71,421.416 128.44,421.377 129.011,422.962C129.7,424.874 133.112,430.479 133.817,431.648L140.553,441.997L140.685,442.23C141.146,443.048 140.828,443.104 145.703,452.775L151.044,462.838C152.37,465.14 153.998,467.258 155.381,469.526C156.222,470.906 157.008,472.329 157.646,473.826L157.651,473.837C158.031,474.735 158.068,474.696 160.593,485.647C161.149,488.058 161.375,490.537 161.905,492.955C161.987,493.325 162.082,493.693 162.196,494.054C163.079,495.247 165.053,498.149 168.415,504.278L168.521,504.47L170.129,507.799C172.158,512.001 170.394,517.059 166.193,519.088C161.991,521.118 156.933,519.354 154.904,515.152L153.484,512.214C147.781,501.837 147.252,502.244 146.85,501.28L146.845,501.269C146.219,499.756 145.741,498.176 145.39,496.577C144.873,494.218 144.661,491.799 144.118,489.446C142.803,483.744 142.145,480.881 141.999,480.243C141.697,479.58 141.324,478.95 140.944,478.328C139.453,475.881 137.71,473.588 136.226,470.987L130.685,460.543L130.645,460.465C127.486,454.201 126.257,451.368 125.873,450.437L119.475,440.607L119.389,440.464C118.843,439.547 114.063,431.355 113.103,428.691C112.332,426.55 112.425,426.651 110.844,416.771C110.703,415.887 109.573,408.747 109.331,405.687C108.87,399.858 109.076,395.159 109.118,394.207C109.265,390.66 109.382,390.783 110.283,383.092C110.389,382.195 111.371,373.951 111.775,371.903L111.827,371.639L114.631,361.022L116.746,350.589L116.748,350.579C119.093,339.155 119.137,339.173 119.28,338.759L119.284,338.749C122.541,329.428 123.173,329.984 129.173,322.466C137.152,312.451 137.167,312.648 145.231,302.636C152.682,293.367 152.511,293.481 160.046,284.119C172.795,268.245 172.863,268.322 173.946,266.928C180.196,258.859 179.747,258.701 185.961,250.669L185.964,250.665C191.958,242.938 192.129,243.356 198.274,235.517C203.753,228.511 203.354,228.467 208.927,221.315L208.931,221.311C209.801,220.196 217.278,210.652 220.085,207.596C223.72,203.637 231.975,196.029 233.037,195.053C234.346,193.849 234.248,193.958 245.932,183.785C256.642,174.461 256.636,174.605 257.512,173.739L257.517,173.734C262.097,169.221 264.825,165.486 265.389,164.711C265.796,164.152 266.184,163.578 266.529,162.979C267.954,160.511 269.171,157.924 270.718,155.397L276.761,146.089L282.512,137.621C283.88,135.283 285.763,131.313 286.205,130.381L289.498,122.778C291.622,116.982 291.374,116.249 291.529,115.779C291.529,115.779 292.34,113.985 292.347,113.973L292.354,113.962C293.13,112.647 294.106,111.45 295.136,110.323C296.514,108.814 298.162,107.552 299.443,105.96C300.91,104.135 300.762,104.143 303.848,99.588C305.643,96.938 306.776,95.275 307.329,94.464Z"/>
                    </g>
                    <g transform="matrix(0.879372,0,0,0.879372,16.671836,521.85)">
                        <path d="M292.631,224.623C292.23,225.303 290.125,228.734 283.584,237.526C282.746,238.651 282.648,238.532 272.755,251.323C265.622,260.547 265.561,260.386 261.874,265.572C259.521,268.884 257.485,272.41 255.283,275.825C254.994,276.272 253.371,278.785 251.472,281.285L251.469,281.289C247.144,286.97 238.251,296.797 237.058,298.113L237.056,298.116C228.977,307.012 228.551,306.327 220.652,315.29C212.778,324.226 207.205,331.733 206.104,333.216C202.857,337.59 202.737,337.675 201.852,342.588C201.833,343.557 201.696,346.577 200.828,353.555L199.089,364.179C198.937,365.416 198.303,370.602 198.352,373.324L198.353,373.336C198.424,377.991 199.14,381.228 199.307,381.96C199.687,383.552 202.657,390.81 202.972,392.709C203.269,394.505 202.876,402.925 202.844,403.591C202.959,404.556 203.374,407.41 204.823,411.606C205.378,413.214 205.419,413.036 208.992,420.757L213.777,430.849L217.919,441.053L217.958,441.157C221.859,451.543 221.814,451.573 221.825,453.936C221.835,455.085 221.55,456.945 220.857,459.062C220.245,460.934 218.934,464.398 218.554,465.397C218.542,468.01 219.675,471.047 219.827,471.507C220.41,473.256 224.085,479.597 224.604,480.873C224.936,481.686 224.597,481.721 227.891,491.346C228.144,492.086 230.286,498.431 231.269,500.512C231.619,501.254 233.218,504.615 236.391,509.393C237.223,510.645 237.191,510.509 243.496,518.803L250.988,528.669L256.001,535.252C258.827,538.964 258.108,544.272 254.396,547.099C250.684,549.926 245.375,549.207 242.549,545.494L237.529,538.903L230.033,529.032C223.154,519.983 223.214,520.113 222.307,518.746C218.375,512.827 216.415,508.651 215.981,507.733C214.808,505.25 212.196,497.703 211.894,496.821C209.779,490.639 209.026,487.843 208.798,486.918C207.886,484.969 204.391,478.665 203.784,476.846L203.78,476.833C203.442,475.81 201.305,468.888 201.72,463.504L201.721,463.49C201.793,462.593 202.148,460.975 202.836,459.07C203.332,457.694 204.262,455.134 204.72,453.872C204.27,452.722 203.357,450.368 202.169,447.207L198.292,437.656L193.682,427.931L193.665,427.895C189.469,418.827 189.491,419.008 188.841,417.125C186.552,410.496 186.114,406.161 186.012,405.21C185.871,403.939 186.171,396.94 186.237,395.444C185.704,394.005 183.114,386.982 182.825,385.734L182.823,385.722C182.606,384.77 181.549,380.2 181.447,373.622C181.381,370.011 182.215,362.882 182.349,361.778L184.091,351.137C185.362,340.891 184.963,340.979 185.121,340.098C186.785,330.817 186.773,330.893 192.527,323.139C193.696,321.565 199.609,313.596 207.967,304.112C215.95,295.053 216.375,295.739 224.537,286.751C225.664,285.509 233.974,276.356 238.014,271.051C239.54,269.042 240.842,267.02 241.074,266.66C243.414,263.032 245.592,259.296 248.093,255.777C251.92,250.393 251.975,250.555 259.381,240.979C269.096,228.418 269.196,228.539 270.019,227.433C279.061,215.281 278.557,215.116 279.386,214.111C280.316,212.984 286.676,205.337 292.048,200.946C294.341,199.071 306.422,191.679 308.491,190.024L308.494,190.021C311.894,187.307 311.588,187.14 318.344,180.102L327.905,169.725L328.066,169.568C333.327,164.435 333.846,165.347 338.81,160.123C342.6,156.135 344.451,152.976 344.858,152.268C345.169,151.723 345.43,151.148 345.652,150.561C346.445,148.462 346.99,146.274 347.812,144.152L351.37,135.165L351.436,135.016C353.715,129.853 353.222,129.785 356.277,125.286C357.409,123.612 363.472,116.944 364.182,116.174L371.692,108.368C372.395,107.56 374.606,104.977 377.149,101.426C378.301,99.816 379.189,98.49 379.862,97.437C382.371,93.503 387.602,92.347 391.535,94.856C395.469,97.366 396.625,102.597 394.116,106.53C393.318,107.781 392.265,109.356 390.896,111.268C387.64,115.816 384.84,119.017 384.144,119.813L376.486,127.772C375.724,128.593 371.145,133.481 370.278,134.764L370.273,134.772C368.099,137.973 368.533,138.119 366.974,141.686L363.55,150.333C362.765,152.369 362.239,154.498 361.468,156.538C360.931,157.96 360.286,159.348 359.527,160.675L359.523,160.683C358.967,161.65 356.415,166.141 351.067,171.769C345.932,177.174 345.38,176.325 340.03,181.517L330.661,191.685L330.601,191.748C322.705,199.971 322.992,200.082 319.048,203.231C317,204.868 305.022,212.178 302.749,214.036C298.618,217.413 293.819,223.184 292.631,224.623Z"/>
                    </g>
                    <g transform="matrix(0.879372,0,0,0.879372,16.671836,521.85)">
                        <path d="M405.243,143.001L412.459,133.783L420.741,124.274L421.396,123.553C424.536,120.102 429.887,119.848 433.338,122.988C436.79,126.127 437.043,131.478 433.904,134.93L433.371,135.516L425.5,144.554L418.082,154.03L417.928,154.205C417.205,155.031 416.966,154.764 408.387,164.054C406.418,166.192 404.677,168.531 402.764,170.72C401.668,171.974 400.539,173.203 399.344,174.364C393.576,179.982 393.1,179.209 387.16,184.688L387.157,184.691C385.786,185.953 385.937,185.871 377.009,194.977L366.298,205.949C359.146,213.465 359.021,213.263 356.109,216.894C355.392,217.786 355.683,217.962 348.038,228.787L338.646,241.671L338.629,241.693C333.636,248.448 333.659,248.23 328.561,255.123C320.351,266.223 320.29,266.121 318.566,268.8L318.563,268.805C317.1,271.074 317.279,270.955 310.478,283.281C308.34,287.157 306.269,291.069 304.152,294.956C303.409,296.32 302.659,297.68 301.9,299.036C301.137,300.401 295.2,311.021 292.266,315.791C291.396,317.206 291.191,317.048 280.891,333.164L280.888,333.168C277.986,337.697 277.862,337.586 277.007,342.944C276.234,347.888 276.267,351.535 276.275,352.297L276.275,352.309C276.302,355.628 277.092,360.855 277.213,361.668C277.33,362.451 277.821,365.673 279.124,371.196L281.889,381.488L283.981,391.92L285.485,401.493L288.01,410.837L288.029,410.912C288.244,411.767 290.154,419.591 290.378,421.682C290.56,423.376 290.174,429.969 290.301,431.468C290.356,432.119 290.636,435.339 291.757,439.487C293.019,444.154 294.285,446.796 294.581,447.4C296.641,451.613 298.982,454.627 299.433,455.208C300.518,456.603 306.967,462.935 308.124,464.522C308.728,465.351 311.721,469.42 314.072,475.884C315.13,478.793 314.949,478.769 316.413,486.86L317.854,496.302C318.438,498.915 319.958,503.941 320.245,504.889L323.281,514.279C323.708,515.432 325.458,520.134 326.837,522.889C328.32,525.85 331.599,531.039 332.036,531.734C332.132,531.887 332.375,532.274 332.716,532.812C335.216,536.751 334.047,541.979 330.107,544.479C326.167,546.978 320.939,545.809 318.44,541.869C318.08,541.303 317.823,540.894 317.722,540.733C317.215,539.927 313.438,533.893 311.719,530.459C309.964,526.954 307.677,520.828 307.299,519.809L304.106,509.933L304.082,509.853C303.836,509.038 301.911,502.611 301.267,499.598L301.215,499.354L299.735,489.646C298.687,483.835 298.963,483.809 298.183,481.663C296.701,477.588 294.844,475.007 294.463,474.485C293.353,472.963 287.128,466.926 286.088,465.589C285.465,464.788 282.231,460.635 279.391,454.826C278.983,453.99 277.18,450.354 275.435,443.899C273.897,438.209 273.529,433.788 273.453,432.897C273.331,431.455 273.742,425.114 273.567,423.485C273.396,421.895 271.905,416.111 271.652,415.112L268.924,405.021L267.334,394.896L265.419,385.348L262.729,375.334L262.7,375.21C261.183,368.8 260.626,365.067 260.49,364.165L260.489,364.153C260.351,363.222 259.402,356.622 259.368,352.47C259.358,351.495 259.298,346.749 260.307,340.308L260.308,340.296C261.726,331.399 261.842,331.554 266.651,324.049C276.8,308.169 277.007,308.328 277.865,306.933C280.694,302.334 286.415,292.087 287.144,290.781L287.147,290.776C287.874,289.479 288.592,288.176 289.303,286.87C291.435,282.956 293.521,279.017 295.674,275.114C302.944,261.937 302.789,262.068 304.35,259.648C306.181,256.801 306.225,256.889 314.968,245.068C320.06,238.185 320.041,238.395 325.018,231.663L334.3,218.931C342.42,207.43 342.153,207.27 342.92,206.314C346.114,202.332 346.213,202.531 354.124,194.215L364.923,183.154L364.929,183.147C374.4,173.488 374.253,173.589 375.699,172.258C381.467,166.937 381.944,167.71 387.556,162.243L387.559,162.24C388.425,161.398 389.238,160.503 390.033,159.594C392.043,157.294 393.883,154.845 395.956,152.593L395.96,152.589C402.011,146.037 404.601,143.589 405.243,143.001Z"/>
                    </g>
                    <g transform="matrix(0.879372,0,0,0.879372,16.671836,521.85)">
                        <path d="M347.408,315.822C347.222,316.454 345.916,320.663 340.87,332.282L340.868,332.288C338.724,337.203 339.086,337.229 338.581,342.469C338.315,345.234 337.774,347.966 337.451,350.724C337.387,351.274 337.364,351.829 337.365,352.394L337.365,352.406C337.365,355.374 338.371,360.67 338.496,361.358C339.454,366.562 340.293,369.281 340.606,370.23L344.718,379.761C345.599,381.787 346.358,383.865 347.235,385.892C347.678,386.917 348.131,387.94 348.654,388.927C351.451,394.2 352.309,393.472 354.837,398.85L354.842,398.861C356.701,402.843 358.077,409.2 358.268,410.123C358.886,413.107 359.391,419.685 359.452,420.535L359.453,420.549C359.618,422.967 359.362,425.397 359.427,427.82C359.433,428.058 359.473,428.295 359.527,428.542L359.53,428.556C359.835,429.969 362.07,434.587 362.57,435.639L366.94,444.185L372.174,452.773L372.184,452.79C373.283,454.613 374.197,456.542 375.277,458.375C375.779,459.226 376.287,460.077 376.881,460.865C378.752,463.344 383.468,467.991 384.053,468.575C386.076,470.58 388.398,472.261 390.493,474.19C391.732,475.332 392.933,476.53 393.98,477.863L393.987,477.871C395.973,480.411 399.097,487.83 399.466,488.756C400.411,491.12 400.796,493.671 401.553,496.101C401.612,496.29 401.682,496.477 401.764,496.657C402.297,497.334 405.264,501.103 406.616,502.91C409.412,506.645 408.649,511.947 404.914,514.743C401.179,517.539 395.876,516.776 393.08,513.041C391.07,510.356 387.555,505.982 386.924,504.783C386.311,503.617 385.803,502.39 385.411,501.133C384.785,499.122 384.551,496.986 383.761,495.018L383.756,495.005C383.538,494.456 381.878,489.84 380.672,488.291C380.19,487.68 379.608,487.152 379.036,486.625C376.789,484.555 374.317,482.731 372.141,480.573L372.135,480.567C371.402,479.837 365.677,474.087 363.384,471.047C362.404,469.748 361.538,468.363 360.712,466.961C359.662,465.18 358.778,463.303 357.712,461.532L352.174,452.444L347.385,443.079L347.315,442.928C346.924,442.084 343.487,434.354 343.003,432.123C342.728,430.86 342.56,429.566 342.526,428.274C342.467,426.085 342.734,423.89 342.585,421.708C342.531,420.955 342.192,415.87 341.712,413.551C341.585,412.936 340.763,408.677 339.525,406.02C337.181,401.037 336.317,401.751 333.716,396.847C332.984,395.466 332.337,394.04 331.717,392.605C330.842,390.582 330.085,388.509 329.201,386.476L329.197,386.466C324.63,375.885 324.727,376.058 324.643,375.808C324.334,374.89 323.166,371.471 321.865,364.407L321.863,364.395C321.691,363.445 320.458,356.37 320.457,352.408C320.455,351.191 320.517,349.972 320.658,348.763C320.967,346.117 321.496,343.499 321.751,340.848C322.513,332.948 322.137,332.944 325.364,325.541C331.983,310.3 331.373,310.196 331.981,308.899C336.083,300.142 340.135,293.575 340.93,292.286L340.933,292.281C346.487,283.303 351.026,277.626 351.995,276.413L351.998,276.41C354.014,273.891 363.214,264.196 364.967,262.06C365.806,261.036 369.562,256.439 374.663,248.893C378.766,242.821 378.476,242.817 382.598,235.95L390.162,223.083L390.166,223.077C390.774,222.046 391.247,220.125 392.15,218.114C393.761,214.526 396.143,210.826 399.785,208.14L399.788,208.138C403.668,205.28 420.342,199.459 424.229,196.795C424.428,196.659 425.717,195.86 426.483,194.807C428.387,192.19 429.856,189.258 431.939,186.731L441.542,175.302L441.602,175.233C450.606,164.974 450.774,165.3 451.52,164.385L451.524,164.381C452.148,163.618 452.755,162.84 453.332,162.04C453.89,161.268 454.437,160.488 454.98,159.705C457.642,155.873 462.914,154.922 466.746,157.583C470.578,160.245 471.529,165.517 468.868,169.349C468.265,170.217 467.658,171.082 467.04,171.939C466.266,173.01 465.454,174.055 464.617,175.078C463.845,176.024 463.686,175.705 454.368,186.319L444.922,197.563C443.101,199.787 441.848,202.427 440.157,204.752C437.931,207.812 434.372,210.34 433.794,210.737L433.791,210.739C431.613,212.232 425.902,214.704 420.141,217.093C415.825,218.883 411.446,220.552 409.816,221.751C408.301,222.87 407.694,224.685 407.116,226.122C406.191,228.427 405.45,230.444 404.733,231.659L397.135,244.584L397.115,244.618C392.724,251.931 393.027,251.915 388.671,258.36C383.076,266.639 378.952,271.669 378.041,272.782L378.038,272.785C376.307,274.894 367.197,284.478 365.199,286.973C364.325,288.068 360.276,293.151 355.314,301.172C354.601,302.328 351.033,308.12 347.408,315.822Z"/>
                    </g>
                    <g transform="matrix(0.879372,0,0,0.879372,16.671836,521.85)">
                        <path d="M458.692,225.697C459.43,224.598 461.567,221.416 466.633,213.866L474.874,201.516L474.892,201.49C476.343,199.35 477.52,197.62 478.479,196.215C481.11,192.362 486.375,191.37 490.228,194.001C494.081,196.632 495.073,201.896 492.442,205.749C491.495,207.137 490.333,208.843 488.903,210.953L480.684,223.269L480.678,223.278C471.43,237.06 471.404,236.894 471.316,236.986C469.134,239.274 457.285,248.014 455.395,249.788L455.392,249.791C449.324,255.476 445.718,260.529 444.981,261.565C440.812,267.448 441.486,267.698 438.333,274.073C437.792,275.17 438.125,275.056 432.069,288.021C431.51,289.217 427.08,298.69 424.871,302.873C424.225,304.097 424.06,303.985 416.265,317.949C415.6,319.14 409.47,330.105 408.104,332.924L408.102,332.93C405.989,337.274 406.196,337.266 405.996,342.067C405.964,342.818 405.809,346.637 406.399,351.461C406.475,352.08 406.926,356.38 407.753,359.103C408.613,360.323 410.469,363.219 413.538,369.256L413.661,369.499L417.794,379.12L423.195,388.348L423.253,388.454C426.632,394.626 427.936,397.616 428.296,398.435L428.4,398.671L431.754,407.771L435.679,416.662L435.765,416.893C436.627,419.2 437.074,421.643 437.783,424.003C437.906,424.411 438.047,424.815 438.219,425.205C438.81,426.545 442.732,432.571 443.329,434.067C444.176,436.191 444.499,437.729 444.662,439.019C444.802,440.118 444.384,440.771 445.118,442.592C446.074,444.963 448.85,448.748 449.212,449.259C449.649,449.877 451.668,452.72 455.143,456.539L457.583,458.953C460.899,462.234 460.928,467.591 457.647,470.908C454.365,474.225 449.008,474.253 445.691,470.972L442.946,468.256L442.802,468.099C438.46,463.347 435.95,459.789 435.409,459.024C434.867,458.258 430.873,452.474 429.438,448.915C428.578,446.784 428.247,445.242 428.078,443.95C427.937,442.868 428.329,442.216 427.696,440.518C427.394,440.018 423.274,433.219 422.747,432.024C422.297,431.001 421.915,429.945 421.593,428.875C421.011,426.941 420.685,424.929 420.002,423.015L416.072,414.115L412.71,404.995C412.284,404.037 411.107,401.483 408.479,396.677L402.673,386.756L398.339,376.67C394.209,368.568 393.337,368.091 392.973,367.475L392.252,365.986C390.765,362.139 389.741,354.528 389.617,353.516C388.853,347.276 389.062,342.336 389.103,341.363C389.45,333.03 389.23,333.077 392.89,325.548C394.331,322.573 400.798,310.968 401.501,309.709C409.118,296.063 409.28,296.193 409.914,294.988L409.917,294.982C412.014,291.013 416.219,282.001 416.75,280.864C422.946,267.603 422.613,267.723 423.169,266.594L423.172,266.589C426.923,259.005 426.237,258.772 431.193,251.779L431.196,251.775C432.081,250.53 436.447,244.372 443.828,237.456C445.539,235.852 455.853,228.333 458.692,225.697Z"/>
                    </g>
                    <g transform="matrix(0.879372,0,0,0.879372,16.671836,521.85)">
                        <path d="M502.488,275.994C502.376,276.774 501.851,280.185 500.083,289.075L497.177,302.912C495.963,309.906 496.638,309.941 495.264,317.02L495.262,317.028C494.496,320.932 491.755,330.727 491.416,331.93C489.992,337.03 489.722,336.877 489.54,342.138C489.435,345.18 489.997,351.202 490.068,352L490.069,352.011C490.129,352.712 490.567,358.228 491.084,360.845C491.471,361.763 492.561,364.526 494.554,370.818L494.558,370.829C494.822,371.669 496.766,377.92 497.483,381.447C497.999,383.988 497.902,386.618 498.222,389.191C498.226,389.218 498.229,389.245 498.234,389.272C498.764,390.111 499.762,391.745 501.205,394.336C503.474,398.413 502.006,403.565 497.929,405.834C493.852,408.103 488.7,406.635 486.431,402.558C482.814,396.059 482.664,396.145 482.379,395.315C481.931,394.01 481.615,392.651 481.444,391.282C481.177,389.135 481.344,386.934 480.914,384.813C480.315,381.868 478.67,376.67 478.43,375.906C475.266,365.917 474.928,366.039 474.721,365.158C474.024,362.192 473.314,354.509 473.225,353.486C473.139,352.52 472.515,345.235 472.642,341.554C472.895,334.257 473.157,334.455 475.137,327.364L475.139,327.356C475.443,326.276 477.968,317.347 478.669,313.779C480.02,306.819 479.326,306.832 480.575,299.696L483.518,285.689C486.244,271.978 485.965,272.096 486.343,270.954C487.642,267.04 492.604,257.463 493.205,256.318C495.117,252.675 496.528,250.102 497.58,248.259C499.892,244.206 505.059,242.793 509.112,245.105C513.165,247.417 514.578,252.584 512.266,256.637C511.282,258.361 509.964,260.768 508.177,264.174C507.692,265.098 503.701,272.591 502.488,275.994Z"/>
                    </g>
                </g>
            </g>
        </g>
    </g>
</svg>
